<svg width="467" height="415" viewBox="0 0 467 415" fill="none" xmlns="http://www.w3.org/2000/svg">
<path d="M453.498 174.963L453.546 175.026L453.595 175.088C461.922 185.58 463.042 203.458 456.307 220.389C449.665 237.087 436.001 251.166 417.106 254.519L413.74 255.116L412.538 258.316L404.333 280.159C404.101 280.724 403.664 281.172 403.119 281.414C402.565 281.66 401.938 281.678 401.372 281.464C400.804 281.249 400.337 280.816 400.078 280.251C399.822 279.695 399.791 279.06 399.99 278.481L405.447 263.955L408.494 255.845H399.831H368.144H364.063L362.564 259.64C362.023 261.01 360.369 265.413 358.742 269.747L358.606 270.108C356.9 274.653 355.265 279.002 354.832 280.086L354.82 280.115L354.809 280.144C354.606 280.668 354.223 281.096 353.736 281.353C353.251 281.609 352.692 281.68 352.16 281.555C351.629 281.43 351.154 281.116 350.828 280.663C350.502 280.209 350.347 279.649 350.397 279.086L350.422 278.811C350.501 278.538 350.625 278.145 350.802 277.624C351.273 276.243 351.964 274.418 352.714 272.487C353.047 271.629 353.452 270.598 353.839 269.612C354.217 268.65 354.578 267.73 354.84 267.053C355.144 266.271 355.421 265.542 355.635 264.949L355.654 264.897C355.794 264.511 356.113 263.628 356.245 262.854L357.441 255.845H350.331H318.616H314.42L312.98 259.785C312.623 260.763 311.294 264.254 309.83 268.104C307.927 273.102 305.795 278.704 305.262 280.191C305.052 280.689 304.68 281.094 304.211 281.341C303.726 281.597 303.167 281.668 302.635 281.543C302.104 281.418 301.63 281.103 301.303 280.651C300.977 280.198 300.821 279.639 300.87 279.076L300.892 278.829C300.971 278.555 301.095 278.163 301.273 277.641C301.747 276.255 302.441 274.418 303.193 272.478C303.524 271.624 303.937 270.571 304.331 269.566C304.709 268.601 305.069 267.682 305.323 267.027C305.626 266.244 305.902 265.517 306.114 264.929L306.136 264.869C306.27 264.5 306.597 263.597 306.726 262.807L307.856 255.845H300.803H269.088H264.867L263.441 259.819C262.993 261.068 261.301 265.565 259.587 270.119L259.489 270.379C257.896 274.613 256.299 278.857 255.824 280.175C255.609 280.679 255.229 281.089 254.753 281.339C254.259 281.599 253.691 281.671 253.15 281.544C252.609 281.418 252.126 281.099 251.793 280.64C251.49 280.224 251.33 279.717 251.337 279.2C251.437 278.859 251.601 278.349 251.832 277.672C252.323 276.236 253.014 274.348 253.743 272.395C254.285 270.942 254.834 269.49 255.324 268.195C255.49 267.755 255.65 267.333 255.8 266.936L255.865 266.763C256.353 265.471 256.886 264.058 257.053 263.463L259.193 255.819L251.255 255.846C241.293 255.879 222.043 255.837 205.264 255.787C196.88 255.762 189.12 255.735 183.455 255.714C189.719 240.072 192.398 223.172 191.242 206.273L191.234 206.156L191.221 206.04C191.018 204.156 190.445 202.331 189.534 200.67C188.623 199.009 187.393 197.544 185.912 196.36C184.431 195.177 182.73 194.299 180.907 193.779C179.083 193.259 177.175 193.106 175.292 193.331C173.409 193.555 171.59 194.152 169.941 195.087C168.291 196.021 166.844 197.273 165.682 198.77C164.52 200.267 163.666 201.979 163.169 203.807C162.694 205.551 162.553 207.369 162.752 209.164C163.565 225.11 159.913 240.967 152.208 254.936L151.943 255.414L151.77 255.933C144.263 278.419 123.132 292.707 98.8028 297.428C74.4309 302.157 48.5063 296.929 32.5371 282.36C21.8417 272.125 11.8661 258.16 8.00584 239.914C4.15461 221.711 6.24334 198.559 20.8902 169.641L20.9068 169.608L20.923 169.575C23.2614 164.814 23.9953 159.422 23.0159 154.208L23.0088 154.17L23.0011 154.132L18.0904 129.737C16.5728 122.176 16.6444 114.379 18.3004 106.847C19.9565 99.3153 23.1603 92.2146 27.7058 85.9991L27.7137 85.9883L65.409 34.2022C65.4108 34.1997 65.4126 34.1973 65.4144 34.1948C70.143 27.7486 76.1905 22.3951 83.1493 18.4929C90.1088 14.5902 97.8191 12.2294 105.761 11.5681C105.764 11.568 105.766 11.5678 105.768 11.5676L164.364 6.82617H164.864C179.46 8.09716 193.55 12.8271 205.975 20.6302C218.47 28.4774 228.921 39.2065 236.457 51.9271L236.604 52.1765L236.775 52.4105L249.178 69.3717L249.188 69.3855L249.198 69.3992C252.715 74.1506 257.873 77.4211 263.669 78.5655C263.674 78.5666 263.68 78.5676 263.685 78.5687L389.167 103.877C389.17 103.877 389.172 103.878 389.174 103.878C397.468 105.576 404.862 110.261 409.96 117.056L409.964 117.061L453.498 174.963ZM69.2228 266.09L69.2298 266.083L69.2367 266.076C71.8982 263.4 73.4008 259.786 73.4275 256.014C73.4541 252.243 72.0028 248.607 69.3796 245.894L69.3565 245.87L69.3332 245.846C64.5625 241.02 60.4433 235.395 59.0835 227.592C57.7177 219.755 58.9789 208.782 66.9263 193.026L66.9278 193.024C67.7733 191.345 68.2808 189.517 68.4219 187.643C68.563 185.769 68.3351 183.886 67.7509 182.099C67.1666 180.313 66.2371 178.659 65.0144 177.231C63.7917 175.803 62.2996 174.629 60.6224 173.778C58.9453 172.927 57.1165 172.415 55.2407 172.272C53.3649 172.13 51.4798 172.36 49.6933 172.949C47.9068 173.538 46.2547 174.473 44.831 175.702C43.409 176.928 42.2427 178.423 41.3974 180.099C32.9238 196.85 28.959 212.49 30.1491 227.034C31.3495 241.703 37.7475 254.65 48.8747 265.959C50.1931 267.31 51.7656 268.388 53.5027 269.13C55.2452 269.873 57.118 270.263 59.0127 270.277C60.9073 270.29 62.7855 269.927 64.5383 269.208C66.2911 268.489 67.883 267.429 69.2228 266.09ZM255.328 157.083L255.395 157.061L255.462 157.037C259.008 155.767 261.909 153.153 263.546 149.764C265.183 146.377 265.429 142.482 264.232 138.915C263.035 135.349 260.488 132.389 257.132 130.681C254.623 129.403 251.813 128.903 249.055 129.209C248.786 127.084 248.324 124.983 247.669 122.931C246.129 118.101 243.564 113.663 240.149 109.921C240.146 109.917 240.142 109.914 240.139 109.91L215.435 82.6089L215.396 82.565L215.355 82.5219C212.333 79.3121 208.689 76.7544 204.644 75.007C200.6 73.2596 196.241 72.3597 191.837 72.3631L191.784 72.3631L191.732 72.364L191.841 78.3626C191.732 72.364 191.732 72.3641 191.731 72.3641L191.729 72.3641L191.72 72.3643L191.682 72.365L191.534 72.3676L190.957 72.3782L188.765 72.4182C186.877 72.4528 184.178 72.5024 180.939 72.5625C174.459 72.6826 165.814 72.8445 157.15 73.0117C148.486 73.1788 139.801 73.3512 133.242 73.4923C129.965 73.5629 127.211 73.6258 125.255 73.6764C124.279 73.7016 123.488 73.7242 122.925 73.7434C122.648 73.7529 122.402 73.7624 122.208 73.7719C122.117 73.7764 122 73.7827 121.883 73.7914C121.829 73.7955 121.729 73.8034 121.611 73.8166C121.553 73.8231 121.452 73.8351 121.329 73.8545L121.327 73.8548C121.277 73.8627 121.144 73.8837 120.963 73.9237C105.706 77.2551 97.3618 88.7376 95.5544 101.409C93.7887 113.788 98.1525 127.567 108.103 136.911C117.091 145.786 130.806 157.001 146.234 164.94C161.475 172.782 179.378 177.927 196.246 173.102L220.953 168.308L220.963 168.306C222.028 168.097 224.707 167.25 227.493 166.351C230.538 165.369 234.385 164.098 238.24 162.814C243.302 161.128 248.293 159.448 251.626 158.326C253.43 157.719 254.748 157.275 255.328 157.083ZM402.939 200.765L402.952 200.781L402.964 200.797C405.304 203.777 408.728 205.712 412.493 206.171C416.255 206.63 420.042 205.575 423.027 203.244C426.017 200.913 427.961 197.493 428.442 193.736C428.923 189.979 427.904 186.18 425.601 183.17L425.591 183.156L425.58 183.142L392.783 140.781L392.761 140.753L392.739 140.725C390.382 137.754 386.95 135.828 383.182 135.372C379.413 134.915 375.62 135.967 372.623 138.293L372.605 138.307L372.587 138.321C369.608 140.669 367.683 144.104 367.228 147.868C366.773 151.626 367.819 155.414 370.143 158.404C370.146 158.409 370.149 158.413 370.153 158.417L402.939 200.765Z" fill="#D6C7B1" stroke="black" stroke-width="12"/>
<path d="M97.5348 326.944C114.625 325.119 130.99 318.996 145.104 309.14L148.436 317.061L148.459 317.116L148.483 317.17C150.016 320.62 152.842 323.333 156.357 324.718C159.874 326.102 163.792 326.044 167.266 324.555C170.738 323.066 173.482 320.271 174.912 316.777C176.341 313.285 176.346 309.369 174.924 305.873L174.908 305.834L174.892 305.796L167.054 287.271C167.676 286.378 168.283 285.473 168.873 284.559C175.464 284.562 186.632 284.562 196.847 284.561C202.971 284.56 208.753 284.559 213.005 284.558L215.365 284.557L216.601 289.196C217.606 304.646 228.797 314.129 238.364 319.403C243.323 322.136 248.215 323.962 251.896 325.083C253.742 325.646 255.33 326.046 256.525 326.299C257.112 326.423 257.666 326.525 258.143 326.59C258.331 326.616 258.596 326.649 258.891 326.667L259.27 326.736L259.28 326.681C259.455 326.682 259.687 326.677 259.948 326.653C260.094 326.639 260.329 326.612 260.619 326.552C261.204 326.632 261.715 326.644 262.077 326.579C262.7 326.354 263.597 325.879 263.887 325.679C264.322 325.362 264.617 325.051 264.682 324.983L264.688 324.978C264.87 324.787 265.001 324.623 265.031 324.586L265.034 324.583C265.12 324.476 265.188 324.384 265.208 324.356L265.208 324.356C265.23 324.326 265.252 324.296 265.272 324.268C265.306 324.221 265.338 324.176 265.363 324.14C265.453 324.013 265.571 323.842 265.706 323.647C265.98 323.25 266.364 322.691 266.816 322.028C267.723 320.701 268.928 318.93 270.129 317.164C270.762 316.233 271.387 315.313 271.969 314.456C272.501 313.674 272.997 312.944 273.431 312.305C273.882 311.642 274.255 311.093 274.516 310.711C274.647 310.519 274.746 310.374 274.811 310.279C274.826 310.258 274.838 310.241 274.847 310.227L274.868 310.197C275.225 309.695 275.76 309.358 276.353 309.253C276.946 309.147 277.558 309.278 278.06 309.622C278.562 309.967 278.916 310.5 279.036 311.112C279.155 311.715 279.036 312.339 278.709 312.852L278.692 312.877L278.52 313.13C278.368 313.353 278.151 313.672 277.888 314.057C277.364 314.826 276.663 315.853 275.964 316.879C275.265 317.905 274.564 318.935 274.04 319.709C273.779 320.095 273.555 320.426 273.396 320.665C273.319 320.781 273.243 320.895 273.183 320.988C273.158 321.026 273.106 321.106 273.052 321.195L273.05 321.198C273.032 321.227 272.949 321.363 272.859 321.534L272.857 321.537C272.839 321.571 272.645 321.929 272.484 322.401C272.433 322.557 272.326 322.947 272.274 323.183C272.212 323.562 272.167 324.616 272.235 325.285C272.554 326.479 274.311 328.945 275.864 329.886C276.213 329.983 276.613 330.049 277.031 330.091L277.003 330.23L305.881 335.91L309.768 336.675L311.998 333.401L322.853 317.463C323.21 316.979 323.734 316.655 324.314 316.551C324.907 316.445 325.519 316.577 326.021 316.921C326.523 317.266 326.877 317.799 326.997 318.41C327.115 319.009 326.999 319.628 326.678 320.139L319.91 330.075L314.794 337.587L323.712 339.34L360.228 346.52L364.114 347.284L366.344 344.011L376.691 328.825C377.047 328.341 377.571 328.017 378.151 327.913C378.744 327.807 379.356 327.939 379.857 328.283C380.359 328.627 380.712 329.16 380.833 329.772C380.953 330.383 380.829 331.016 380.491 331.533L380.473 331.561C380.473 331.561 380.472 331.562 380.472 331.563C380.433 331.62 380.37 331.712 380.283 331.84C380.202 331.96 380.103 332.104 379.989 332.27C379.863 332.454 379.72 332.664 379.561 332.896L379.382 333.158C378.805 334.001 378.077 335.064 377.353 336.126C376.554 337.298 375.749 338.483 375.151 339.375C374.856 339.816 374.592 340.212 374.401 340.508C374.314 340.643 374.202 340.819 374.103 340.985C374.075 341.032 373.944 341.25 373.813 341.522C373.774 341.603 373.709 341.743 373.639 341.919C373.588 342.048 373.439 342.429 373.334 342.94C373.283 343.19 373.196 343.691 373.216 344.328C373.233 344.879 373.345 346.225 374.298 347.586C375.276 348.983 376.683 349.762 378.068 350.034L378.068 350.034L395.173 353.368C397.32 353.823 399.313 354.837 400.951 356.312C402.597 357.796 403.825 359.693 404.508 361.811C405.19 363.93 405.302 366.192 404.831 368.369C404.364 370.531 403.338 372.529 401.861 374.164L388.161 388.748L388.153 388.757C381.632 395.725 373.585 401.071 364.652 404.373C355.718 407.674 346.142 408.841 336.682 407.782L143.981 386.142L143.967 386.14C137.562 385.436 131.449 383.063 126.235 379.254C121.021 375.446 116.887 370.335 114.245 364.424C114.245 364.424 114.245 364.423 114.245 364.423L97.5348 326.944ZM380.494 331.53C380.496 331.526 380.496 331.527 380.492 331.533L380.494 331.53ZM278.675 312.905C278.682 312.894 278.689 312.883 278.695 312.874L278.675 312.905ZM274.869 310.195C274.872 310.191 274.871 310.192 274.868 310.197L274.869 310.195Z" fill="#D6C7B1" stroke="black" stroke-width="12"/>
<path d="M198.667 97.9146C197.841 96.9912 196.825 96.2588 195.69 95.7683C194.554 95.2777 193.326 95.0407 192.091 95.0736L125.415 96.2435C123.303 96.673 121.397 97.8061 120.007 99.4592C118.617 101.112 117.824 103.188 117.756 105.35C117.635 108.233 118.138 111.107 119.23 113.776C120.323 116.444 121.978 118.843 124.083 120.808C133.279 129.31 143.257 136.92 153.883 143.534C165.033 150.861 178.604 153.501 191.674 150.887C193.172 150.488 218.561 145.84 219.227 145.121C221.026 144.31 222.609 143.084 223.849 141.544C225.089 140.004 225.951 138.193 226.364 136.257C226.777 134.321 226.731 132.315 226.228 130.4C225.726 128.485 224.781 126.716 223.472 125.236L198.667 97.9146Z" fill="#063028"/>
</svg>
