<svg width="1920" height="1080" viewBox="0 0 1920 1080" fill="none" xmlns="http://www.w3.org/2000/svg">
<path d="M72.2572 970.849C57.6708 974.585 52.2009 980.271 50.0461 985.064C48.4714 988.475 48.3886 991.724 44.9077 997.004C44.3276 997.898 41.5097 1002.2 36.0399 1006.59C30.57 1010.98 27.8351 1010.98 23.111 1014.22C19.3816 1016.82 15.072 1020.8 10.1822 1028.12C3.7178 1037.7 1.14862 1046.39 0.154097 1052.32C-0.674664 1057.19 1.89452 1061.99 6.53563 1064.02C11.5083 1066.29 15.9007 1067.75 19.4645 1068.73C25.6802 1070.44 32.8905 1072.47 42.1728 1071.82C50.5434 1071.25 47.9742 1071.65 58.4167 1070.52C66.7044 1069.62 73.3346 1070.84 80.2962 1072.95C85.6004 1074.66 88.4182 1077.75 94.7168 1079.13C99.8552 1080.26 101.098 1080.1 103.419 1079.7C116.596 1077.18 123.061 1073.77 123.061 1073.77C112.121 1063.86 103.585 1058.9 97.7004 1059.06C93.225 1059.14 91.5675 1060.36 87.3408 1061.5C87.3408 1061.5 85.1031 1062.15 80.2134 1062.8C71.2626 1063.94 53.1954 1055.25 52.9468 1049.15C52.8639 1047.61 54.1899 1046.39 56.7591 1043.95C58.6653 1042.17 61.7318 1039.73 69.5222 1036.81C75.738 1034.37 81.5394 1032.18 89.4127 1032.1C93.0593 1032.1 95.5456 1032.5 96.7059 1032.66C103.419 1033.39 114.193 1029.58 132.26 1009.19C102.839 1003.5 92.3134 1006.83 88.2524 1011.22C87.5065 1012.03 85.6004 1014.39 82.2024 1017.07C76.6496 1021.45 71.014 1023.48 67.8647 1024.62C63.3893 1026.17 59.8256 1026.65 57.4222 1027.22C46.8139 1029.5 35.0453 1030.96 39.2721 1022.67C43.4159 1014.39 49.0516 1003.1 60.4886 997.573C71.9257 992.049 73.7489 975.885 72.2572 970.849Z" fill="#FEFEFE"/>
<path d="M435.012 919.92C420.094 917.808 412.801 921.057 408.906 924.631C406.088 927.149 404.762 930.074 399.458 933.729C398.546 934.298 394.236 937.222 387.358 939.171C380.645 941.121 378.075 940.146 372.523 941.283C368.047 942.258 362.412 944.289 354.953 949.162C345.256 955.58 339.372 962.565 336.14 967.683C333.405 971.825 333.902 977.268 337.3 980.923C341.029 984.822 344.51 987.909 347.411 990.102C352.383 994.082 358.268 998.631 367.053 1001.56C375.009 1004.15 372.44 1003.67 382.551 1006.59C390.507 1008.87 396.225 1012.52 401.778 1017.15C406.005 1020.64 407.331 1024.54 412.635 1028.28C416.862 1031.2 418.022 1031.61 420.343 1032.02C433.52 1034.7 440.896 1034.05 440.896 1034.05C434.68 1020.81 428.796 1013.01 423.326 1010.9C419.182 1009.27 417.193 1009.76 412.801 1009.19C412.801 1009.19 410.48 1008.95 405.756 1007.65C397.054 1005.29 383.877 990.508 386.032 984.822C386.612 983.279 388.269 982.71 391.667 981.41C394.071 980.517 397.883 979.461 406.171 979.623C412.967 979.786 419.182 979.948 426.393 982.872C429.791 984.253 431.945 985.553 432.94 986.122C438.824 989.371 450.261 989.939 475.042 977.999C450.178 961.59 439.156 960.697 433.686 963.215C432.691 963.702 429.956 965.165 425.813 966.302C418.851 968.251 412.884 968.008 409.569 967.764C404.762 967.52 401.281 966.627 398.96 966.221C388.269 964.352 376.832 961.184 383.96 955.173C391.087 949.162 400.784 940.877 413.547 940.065C426.31 939.334 434.349 925.119 435.012 919.92Z" fill="#FEFEFE"/>
<path d="M779.031 929.829C764.114 927.798 756.82 930.966 752.925 934.54C750.107 937.058 748.781 940.064 743.477 943.638C742.565 944.206 738.173 947.131 731.377 949.08C724.664 951.03 722.095 950.055 716.459 951.273C711.984 952.167 706.431 954.279 698.972 959.153C689.193 965.488 683.391 972.474 680.159 977.592C677.424 981.815 677.921 987.177 681.319 990.832C684.966 994.812 688.53 997.818 691.347 1000.01C696.403 1003.99 702.287 1008.54 711.072 1011.46C719.028 1014.14 716.459 1013.58 726.57 1016.5C734.526 1018.77 740.245 1022.43 745.798 1027.06C750.024 1030.55 751.35 1034.45 756.655 1038.19C760.881 1041.11 762.042 1041.52 764.362 1042.01C777.54 1044.61 784.916 1043.96 784.916 1043.96C778.7 1030.72 772.816 1022.92 767.346 1020.81C763.202 1019.18 761.213 1019.67 756.82 1019.1C756.82 1019.1 754.5 1018.86 749.776 1017.64C740.991 1015.2 727.896 1000.42 730.051 994.731C730.548 993.269 732.289 992.619 735.687 991.4C738.09 990.426 741.902 989.451 750.19 989.613C756.986 989.695 763.202 989.938 770.412 992.781C773.81 994.162 775.965 995.543 776.959 996.031C782.761 999.28 794.281 999.93 819.061 987.989C794.198 971.499 783.175 970.606 777.705 973.124C776.711 973.611 773.976 975.073 769.832 976.211C762.87 978.16 756.903 977.916 753.505 977.754C748.781 977.429 745.3 976.617 742.98 976.211C732.206 974.342 720.852 971.174 727.979 965.082C735.107 959.071 744.803 950.786 757.566 950.055C770.329 949.243 778.368 935.028 779.031 929.829Z" fill="#FEFEFE"/>
<path d="M1161.18 925.199C1146.18 926.093 1139.72 930.723 1136.65 934.947C1134.41 937.952 1133.67 941.12 1129.19 945.75C1128.45 946.481 1124.8 950.136 1118.58 953.386C1112.37 956.635 1109.63 956.229 1104.41 958.503C1100.18 960.29 1095.21 963.377 1088.91 969.631C1080.63 977.836 1076.4 985.796 1074.24 991.482C1072.5 996.112 1074.08 1001.23 1078.14 1004.15C1082.61 1007.32 1086.68 1009.6 1089.91 1011.22C1095.71 1014.06 1102.34 1017.39 1111.54 1018.53C1119.91 1019.59 1117.26 1019.51 1127.78 1020.4C1136.07 1021.13 1142.37 1023.49 1148.75 1026.98C1153.64 1029.58 1155.71 1033.15 1161.68 1035.75C1166.49 1037.78 1167.73 1037.94 1170.05 1037.94C1183.48 1037.94 1190.6 1035.83 1190.6 1035.83C1181.82 1024.05 1174.36 1017.56 1168.56 1016.58C1164.17 1015.85 1162.34 1016.66 1157.95 1016.99C1157.95 1016.99 1155.63 1017.23 1150.74 1016.91C1141.71 1016.34 1125.71 1004.4 1126.71 998.386C1126.87 996.843 1128.45 995.868 1131.51 994C1133.67 992.619 1137.23 990.832 1145.35 989.37C1151.98 988.233 1158.12 987.177 1165.82 988.558C1169.47 989.208 1171.79 990.101 1172.87 990.507C1179.33 992.538 1190.69 990.832 1212.48 974.261C1184.72 963.052 1173.7 964.27 1168.89 967.844C1167.98 968.494 1165.66 970.525 1161.85 972.474C1155.38 975.724 1149.5 976.617 1146.18 977.104C1141.46 977.836 1137.89 977.673 1135.49 977.673C1124.63 977.998 1112.78 977.105 1118.5 969.794C1124.3 962.483 1132.01 952.492 1144.36 949.162C1156.71 945.913 1161.68 930.398 1161.18 925.199Z" fill="#FEFEFE"/>
<path d="M1508.77 737.235C1496.26 745.358 1493.02 752.506 1492.53 757.624C1492.11 761.36 1493.11 764.447 1491.61 770.539C1491.37 771.595 1490.12 776.55 1486.39 782.48C1482.66 788.328 1480.09 789.222 1476.7 793.771C1473.96 797.345 1471.23 802.543 1468.99 810.991C1466.09 822.12 1466.5 831.055 1467.58 836.984C1468.41 841.858 1472.47 845.595 1477.44 846.082C1482.91 846.651 1487.55 846.651 1491.28 846.488C1497.75 846.163 1505.21 845.757 1513.74 842.264C1521.45 839.015 1519.21 840.315 1528.74 835.928C1536.28 832.436 1543 831.461 1550.29 831.298C1555.84 831.217 1559.49 833.248 1565.95 832.598C1571.18 832.111 1572.25 831.542 1574.33 830.405C1585.93 823.907 1590.98 818.627 1590.98 818.627C1577.31 812.697 1567.61 810.666 1562.06 812.697C1557.92 814.159 1556.76 815.865 1553.11 818.221C1553.11 818.221 1551.2 819.601 1546.81 821.713C1538.69 825.612 1518.8 823.094 1516.48 817.408C1515.9 815.946 1516.73 814.403 1518.38 811.235C1519.54 809.042 1521.7 805.711 1528 800.513C1533.14 796.208 1537.94 792.309 1545.32 789.79C1548.8 788.572 1551.29 788.247 1552.36 788.003C1558.99 786.623 1568.03 779.556 1578.3 754.618C1548.55 758.436 1539.68 764.934 1537.36 770.377C1536.87 771.351 1535.87 774.194 1533.55 777.85C1529.74 783.78 1525.1 787.435 1522.44 789.466C1518.72 792.39 1515.48 793.933 1513.49 795.233C1504.21 800.756 1493.52 805.793 1494.76 796.614C1495.92 787.516 1497.5 775.007 1506.53 766.153C1515.57 757.38 1511.84 741.459 1508.77 737.235Z" fill="#FEFEFE"/>
<path d="M1713.56 421.985C1700.96 430.108 1697.73 437.256 1697.23 442.455C1696.9 446.192 1697.89 449.278 1696.4 455.37C1696.15 456.426 1694.91 461.381 1691.1 467.23C1687.45 473.078 1684.88 474.053 1681.48 478.521C1678.75 482.176 1676.01 487.293 1673.78 495.822C1670.87 506.87 1671.29 515.886 1672.28 521.816C1673.2 526.689 1677.17 530.426 1682.23 530.913C1687.7 531.482 1692.34 531.482 1695.99 531.319C1702.45 530.995 1709.99 530.588 1718.53 527.014C1726.24 523.846 1724 525.065 1733.53 520.76C1741.07 517.267 1747.78 516.292 1755.08 516.13C1760.63 516.048 1764.28 518.079 1770.74 517.429C1775.96 516.861 1777.04 516.373 1779.11 515.236C1790.71 508.657 1795.77 503.377 1795.77 503.377C1782.1 497.528 1772.4 495.498 1766.85 497.528C1762.7 498.99 1761.54 500.615 1757.9 503.052C1757.9 503.052 1755.99 504.351 1751.6 506.545C1743.47 510.444 1723.5 507.926 1721.26 502.24C1720.68 500.777 1721.51 499.234 1723.17 496.066C1724.33 493.792 1726.49 490.543 1732.78 485.344C1737.92 481.039 1742.73 477.14 1750.11 474.622C1753.59 473.403 1756.07 472.997 1757.15 472.835C1763.78 471.454 1772.73 464.387 1783.09 439.45C1753.34 443.267 1744.47 449.766 1742.15 455.127C1741.65 456.183 1740.66 459.026 1738.34 462.6C1734.52 468.611 1729.88 472.266 1727.23 474.297C1723.5 477.221 1720.27 478.764 1718.2 479.983C1709 485.588 1698.31 490.624 1699.47 481.445C1700.71 472.266 1702.29 459.838 1711.32 450.984C1720.27 442.13 1716.62 426.29 1713.56 421.985Z" fill="#FEFEFE"/>
<path d="M1837.79 148.325C1825.27 156.448 1822.04 163.596 1821.46 168.795C1821.13 172.531 1822.12 175.618 1820.63 181.71C1820.38 182.766 1819.14 187.721 1815.41 193.57C1811.68 199.418 1809.11 200.312 1805.71 204.861C1802.98 208.516 1800.24 213.633 1798.01 222.162C1795.1 233.209 1795.52 242.226 1796.51 248.156C1797.42 253.029 1801.49 256.685 1806.46 257.253C1811.93 257.822 1816.57 257.822 1820.3 257.578C1826.68 257.253 1834.22 256.928 1842.76 253.354C1850.47 250.186 1848.23 251.405 1857.76 247.018C1865.3 243.607 1872.01 242.632 1879.31 242.47C1884.86 242.388 1888.51 244.419 1894.97 243.769C1900.19 243.201 1901.27 242.713 1903.34 241.576C1914.94 234.996 1920 229.717 1920 229.717C1906.33 223.787 1896.63 221.837 1891.08 223.787C1886.93 225.33 1885.77 226.955 1882.13 229.392C1882.13 229.392 1880.22 230.691 1875.83 232.803C1867.7 236.702 1847.81 234.265 1845.49 228.579C1844.91 227.117 1845.74 225.493 1847.4 222.406C1848.56 220.132 1850.71 216.882 1857.01 211.603C1862.15 207.379 1866.96 203.48 1874.33 200.88C1877.82 199.743 1880.3 199.337 1881.38 199.093C1888.01 197.712 1896.96 190.727 1907.32 165.708C1877.57 169.607 1868.7 176.024 1866.38 181.467C1865.88 182.523 1864.89 185.366 1862.57 188.94C1858.75 194.869 1854.11 198.525 1851.46 200.637C1847.73 203.48 1844.5 205.104 1842.51 206.323C1833.23 211.846 1822.54 216.882 1823.78 207.785C1824.94 198.606 1826.51 186.178 1835.55 177.324C1844.58 168.47 1840.85 152.63 1837.79 148.325Z" fill="#FEFEFE"/>
<path d="M268.177 968.656C254.088 973.854 246.215 972.23 241.657 969.63C238.342 967.681 236.352 965.081 230.385 962.726C229.391 962.32 224.501 960.451 217.456 959.964C210.412 959.477 208.174 960.939 202.373 960.939C197.815 960.939 191.93 960.127 183.56 956.959C172.62 952.735 165.41 947.13 161.1 942.825C157.536 939.332 156.79 933.971 159.277 929.666C162.012 925.036 164.747 921.38 167.067 918.619C171.128 913.664 175.852 907.978 183.808 903.266C190.936 899.042 188.615 900.098 197.815 895.143C205.108 891.163 209.832 886.452 214.224 880.766C217.622 876.461 218.037 872.399 222.346 867.607C225.827 863.87 226.904 863.22 229.059 862.246C241.325 856.966 248.701 856.072 248.701 856.072C245.552 870.287 241.574 879.141 236.684 882.39C232.955 884.746 230.883 884.746 226.739 886.208C226.739 886.208 224.584 886.858 220.191 889.132C212.235 893.275 202.621 910.496 206.019 915.613C206.848 916.994 208.672 917.238 212.235 917.725C214.804 918.131 218.783 918.294 226.822 916.425C233.452 914.882 239.419 913.42 245.883 909.034C248.867 907.003 250.69 905.216 251.519 904.485C256.492 900.098 267.597 897.093 294.449 903.51C273.813 924.792 263.205 928.041 257.32 926.741C256.243 926.417 253.259 925.604 248.95 925.361C241.739 924.873 235.938 926.416 232.706 927.31C228.148 928.528 224.915 930.153 222.678 931.047C212.65 935.108 202.207 940.632 210.578 945.018C218.865 949.404 230.137 955.415 242.734 953.466C255.414 951.597 266.437 963.782 268.177 968.656Z" fill="#FEFEFE"/>
<path d="M608.888 942.176C593.97 944.126 586.677 940.795 582.865 937.221C580.047 934.703 578.721 931.698 573.5 928.042C572.588 927.393 568.278 924.55 561.483 922.438C554.77 920.407 552.2 921.382 546.648 920.163C542.172 919.188 536.619 917.077 529.16 912.122C519.464 905.623 513.745 898.556 510.513 893.439C507.944 889.215 508.441 883.773 511.922 880.199C515.569 876.3 519.132 873.294 522.033 871.101C527.089 867.202 533.056 862.653 541.841 859.891C549.797 857.292 547.311 857.861 557.422 855.018C565.378 852.743 571.096 849.25 576.732 844.702C580.959 841.209 582.368 837.31 587.672 833.654C591.981 830.73 593.142 830.405 595.462 829.918C608.64 827.4 616.016 828.131 616.016 828.131C609.717 841.371 603.75 849.088 598.197 851.119C594.053 852.662 592.064 852.175 587.672 852.743C587.672 852.743 585.351 852.906 580.627 854.124C571.842 856.399 558.499 871.101 560.654 876.787C561.151 878.33 562.809 878.98 566.207 880.199C568.61 881.173 572.422 882.229 580.71 882.148C587.506 882.067 593.722 881.986 601.015 879.143C604.413 877.843 606.568 876.543 607.562 875.975C613.446 872.807 624.966 872.319 649.581 884.504C624.552 900.668 613.529 901.481 608.059 898.962C607.065 898.394 604.33 896.932 600.186 895.713C593.307 893.683 587.34 893.926 583.942 894.089C579.218 894.251 575.737 895.145 573.334 895.47C562.643 897.257 551.206 900.262 558.25 906.436C565.295 912.528 574.909 920.894 587.672 921.788C600.435 922.681 608.308 936.978 608.888 942.176Z" fill="#FEFEFE"/>
<path d="M971.307 964.596C956.39 966.546 949.096 963.215 945.284 959.641C942.466 957.042 941.14 954.036 935.919 950.462C935.007 949.813 930.698 946.888 923.902 944.858C917.189 942.827 914.62 943.802 909.067 942.502C904.591 941.527 899.039 939.415 891.663 934.46C881.966 927.962 876.165 920.895 873.015 915.778C870.363 911.554 870.86 906.193 874.341 902.619C878.071 898.638 881.552 895.633 884.452 893.44C889.591 889.541 895.475 885.073 904.26 882.23C912.299 879.712 909.73 880.199 919.841 877.356C927.88 875.163 933.515 871.589 939.151 867.04C943.461 863.547 944.787 859.648 950.091 856.074C954.401 853.069 955.644 852.744 957.964 852.338C971.059 849.82 978.435 850.551 978.435 850.551C972.136 863.71 966.169 871.508 960.616 873.539C956.472 875.082 954.483 874.595 950.091 875.082C950.091 875.082 947.853 875.326 943.046 876.544C934.261 878.818 921.001 893.44 923.073 899.207C923.57 900.669 925.311 901.319 928.626 902.619C931.112 903.512 934.924 904.649 943.212 904.568C949.925 904.487 956.141 904.406 963.434 901.563C966.832 900.182 968.987 898.882 969.981 898.395C975.866 895.145 987.386 894.658 1012 906.924C986.971 923.088 975.949 923.901 970.479 921.301C969.484 920.814 966.832 919.352 962.605 918.133C955.727 916.103 949.759 916.265 946.361 916.427C941.637 916.671 938.157 917.483 935.753 917.89C925.062 919.677 913.625 922.682 920.67 928.774C927.797 934.948 937.328 943.314 950.091 944.208C962.854 945.101 970.727 959.398 971.307 964.596Z" fill="#FEFEFE"/>
<path d="M1361.33 888.24C1349.81 897.663 1341.85 898.719 1336.63 897.744C1332.82 897.013 1330.09 895.226 1323.62 894.901C1322.54 894.82 1317.32 894.658 1310.44 896.526C1303.73 898.313 1302.07 900.506 1296.69 902.374C1292.38 903.918 1286.49 904.974 1277.54 904.73C1265.77 904.405 1257.07 901.4 1251.52 898.8C1246.96 896.688 1244.47 891.815 1245.3 886.941C1246.3 881.742 1247.62 877.356 1248.87 873.944C1251.02 868.014 1253.51 861.11 1259.31 854.124C1264.61 847.707 1262.79 849.494 1269.75 841.859C1275.3 835.767 1278.12 829.756 1280.28 822.932C1282.02 817.815 1281.02 813.835 1283.43 807.905C1285.42 803.194 1286.24 802.3 1287.98 800.676C1297.68 791.659 1304.31 788.41 1304.31 788.41C1306.3 802.869 1305.47 812.535 1301.99 817.165C1299.34 820.658 1297.43 821.227 1293.95 823.988C1293.95 823.988 1292.13 825.369 1288.81 828.862C1282.68 835.442 1279.61 854.774 1284.5 858.511C1285.83 859.485 1287.57 859.161 1291.13 858.429C1293.7 857.942 1297.52 856.886 1304.39 852.419C1310.11 848.844 1315.25 845.433 1319.81 839.259C1321.96 836.335 1323.04 834.142 1323.54 833.167C1326.77 827.319 1336.22 820.902 1363.73 818.221C1351.55 845.027 1342.68 851.525 1336.72 852.175C1335.56 852.337 1332.49 852.419 1328.26 853.637C1321.38 855.586 1316.49 858.836 1313.68 860.785C1309.78 863.466 1307.29 865.984 1305.55 867.527C1297.52 874.675 1289.56 883.286 1298.84 884.666C1308.21 886.129 1320.89 888.159 1332.16 882.23C1343.35 876.219 1357.93 884.098 1361.33 888.24Z" fill="#FEFEFE"/>
<path d="M1622.97 624.407C1616.76 637.81 1610.05 642.115 1604.91 643.415C1601.18 644.309 1597.95 643.821 1591.98 646.258C1590.9 646.664 1586.18 648.695 1580.79 653.244C1575.49 657.711 1574.91 660.392 1570.93 664.372C1567.69 667.54 1562.89 670.952 1554.68 674.526C1543.91 679.075 1534.71 680.13 1528.58 680.049C1523.52 680.049 1519.05 676.719 1517.72 672.008C1516.31 666.809 1515.57 662.341 1515.15 658.767C1514.49 652.513 1513.66 645.202 1515.9 636.429C1517.89 628.469 1516.97 630.825 1519.87 620.996C1522.2 613.198 1522.11 606.537 1521.12 599.551C1520.37 594.109 1517.64 590.941 1517.31 584.605C1517.06 579.569 1517.39 578.351 1518.22 576.157C1522.94 563.973 1527.5 558.287 1527.5 558.287C1535.62 570.471 1539.19 579.488 1538.11 585.174C1537.28 589.398 1535.79 590.779 1533.88 594.678C1533.88 594.678 1532.89 596.708 1531.39 601.257C1528.74 609.786 1534.46 628.55 1540.59 629.85C1542.17 630.175 1543.58 629.119 1546.48 627.007C1548.63 625.463 1551.53 622.945 1555.84 616.041C1559.41 610.355 1562.56 605.156 1563.97 597.683C1564.63 594.109 1564.63 591.672 1564.63 590.535C1564.96 583.955 1570.68 574.208 1594.3 560.237C1595.13 589.479 1589.99 599.145 1584.93 602.232C1583.94 602.801 1581.2 604.263 1577.97 607.024C1572.5 611.736 1569.6 616.772 1567.94 619.615C1565.54 623.676 1564.46 627.007 1563.55 629.2C1559.41 639.029 1556.01 650.076 1565.04 647.476C1574.16 644.796 1586.51 641.303 1594.05 631.231C1601.51 621.158 1618.17 622.133 1622.97 624.407Z" fill="#FEFEFE"/>
<path d="M1733.7 339.7C1727.48 353.103 1720.77 357.327 1715.55 358.708C1711.9 359.601 1708.58 359.114 1702.62 361.551C1701.62 361.957 1696.81 363.988 1691.43 368.537C1686.12 373.004 1685.63 375.685 1681.57 379.665C1678.33 382.833 1673.53 386.245 1665.32 389.819C1654.55 394.367 1645.35 395.423 1639.22 395.342C1634.16 395.342 1629.77 392.012 1628.44 387.219C1626.95 382.102 1626.2 377.553 1625.87 374.06C1625.13 367.724 1624.38 360.495 1626.54 351.722C1628.52 343.762 1627.61 346.118 1630.51 336.289C1632.83 328.41 1632.75 321.83 1631.76 314.763C1631.01 309.402 1628.36 306.234 1627.94 299.898C1627.7 294.781 1628.03 293.644 1628.86 291.45C1633.66 279.266 1638.14 273.58 1638.14 273.58C1646.34 285.764 1649.91 294.781 1648.75 300.467C1647.92 304.691 1646.43 306.072 1644.6 309.971C1644.6 309.971 1643.52 312.001 1642.03 316.55C1639.38 325.079 1645.1 343.843 1651.23 345.143C1652.81 345.468 1654.3 344.412 1657.2 342.3C1659.27 340.756 1662.26 338.238 1666.56 331.253C1670.05 325.648 1673.2 320.449 1674.6 312.895C1675.27 309.402 1675.27 306.965 1675.27 305.828C1675.6 299.248 1681.32 289.501 1704.94 275.53C1705.77 304.772 1700.71 314.357 1695.57 317.525C1694.58 318.094 1691.84 319.556 1688.61 322.317C1683.22 327.029 1680.24 332.065 1678.58 334.908C1676.26 338.969 1675.1 342.3 1674.19 344.493C1670.05 354.24 1666.65 365.369 1675.76 362.769C1684.8 360.089 1697.15 356.596 1704.69 346.524C1712.23 336.451 1728.81 337.426 1733.7 339.7Z" fill="#FEFEFE"/>
<path d="M1915.44 66.1203C1909.23 79.5231 1902.51 83.8282 1897.37 85.1279C1893.65 86.0214 1890.41 85.5341 1884.45 87.9709C1883.37 88.4583 1878.64 90.4078 1873.26 94.9566C1867.95 99.5054 1867.37 102.105 1863.4 106.085C1860.16 109.253 1855.36 112.746 1847.15 116.239C1836.38 120.787 1827.18 121.843 1821.04 121.762C1815.99 121.762 1811.51 118.432 1810.19 113.72C1808.78 108.522 1808.03 104.054 1807.62 100.48C1806.96 94.2256 1806.13 86.9149 1808.36 78.1422C1810.35 70.1818 1809.44 72.5374 1812.34 62.7087C1814.66 54.9107 1814.58 48.25 1813.59 41.2643C1812.84 35.8219 1810.11 32.654 1809.77 26.3182C1809.53 21.282 1809.86 20.0635 1810.69 17.8704C1815.41 5.68601 1819.97 0 1819.97 0C1828.09 12.1843 1831.65 21.2008 1830.58 26.8868C1829.75 31.1919 1828.26 32.4916 1826.35 36.4718C1826.35 36.4718 1825.35 38.4213 1823.86 43.0513C1821.21 51.4991 1826.93 70.263 1833.06 71.5627C1834.64 71.8876 1836.05 70.8316 1838.95 68.7197C1841.1 67.1763 1844 64.6582 1848.31 57.7538C1851.88 52.0677 1855.02 46.8691 1856.43 39.396C1857.1 35.822 1857.1 33.3851 1857.1 32.2479C1857.43 25.6683 1863.15 15.9209 1886.77 1.94949C1887.6 31.2731 1882.46 40.8582 1877.4 43.9448C1876.41 44.5135 1873.67 45.9756 1870.44 48.8186C1864.97 53.4486 1862.07 58.4848 1860.41 61.3278C1858.01 65.3893 1856.93 68.7197 1856.02 70.9128C1851.88 80.7415 1848.48 91.7887 1857.51 89.1894C1866.63 86.5088 1878.98 83.016 1886.52 72.9436C1893.98 62.8712 1910.64 63.9272 1915.44 66.1203Z" fill="#FEFEFE"/>
</svg>
