<svg width="1920" height="250" viewBox="0 0 1920 250" fill="none" xmlns="http://www.w3.org/2000/svg">
<path d="M1630.56 86.8914C1641.94 79.7816 1649.15 79.8387 1653.66 81.3538C1656.97 82.4184 1659.23 84.3828 1664.92 85.4563C1665.91 85.6504 1670.55 86.4994 1676.91 85.6961C1683.2 84.8625 1684.88 83.1126 1689.95 82.0607C1693.96 81.1813 1699.34 80.911 1707.3 82.2625C1717.76 84.0809 1725.18 87.7671 1729.81 90.8646C1733.64 93.3644 1735.34 98.0607 1733.97 102.279C1732.49 106.931 1730.82 110.697 1729.34 113.662C1726.74 118.786 1723.72 124.687 1717.69 130.304C1712.17 135.341 1714.08 134.012 1706.94 140.102C1701.27 144.912 1698.03 149.994 1695.27 155.852C1693.21 160.327 1693.62 164.048 1690.74 169.05C1688.46 173.104 1687.59 173.765 1685.88 175.02C1676.21 181.999 1669.92 184.122 1669.92 184.122C1669.82 170.802 1671.58 162.172 1675.3 158.427C1678.02 155.613 1679.89 155.311 1683.19 153.235C1683.19 153.235 1685.04 152.206 1688.41 149.433C1694.63 144.304 1699.65 127.219 1695.67 123.204C1694.64 122.186 1693.03 122.279 1689.76 122.437C1687.48 122.556 1683.89 123.056 1677.22 126.218C1671.73 128.774 1666.7 131.213 1661.92 136.254C1659.64 138.622 1658.47 140.518 1657.88 141.301C1654.32 146.163 1645.1 150.844 1620.29 149.834C1634.22 127.122 1642.9 122.362 1648.35 122.519C1649.35 122.481 1652.11 122.74 1656.04 122.227C1662.43 121.357 1667.19 118.961 1669.87 117.57C1673.68 115.64 1676.15 113.596 1677.97 112.469C1685.98 107.008 1694.08 100.22 1685.87 97.7878C1677.75 95.3184 1666.59 91.9063 1655.85 95.9173C1645.18 99.9588 1633.04 90.9634 1630.56 86.8914Z" fill="#0C2A1B"/>
<path d="M697.564 127.553C708.938 120.443 716.151 120.5 720.662 122.015C723.974 123.08 726.23 125.044 731.924 126.117C732.907 126.312 737.548 127.16 743.909 126.357C750.2 125.524 751.88 123.774 756.952 122.722C760.961 121.842 766.345 121.572 774.3 122.924C784.764 124.742 792.179 128.428 796.812 131.526C800.64 134.026 802.344 138.722 800.97 142.94C799.485 147.592 797.817 151.358 796.34 154.323C793.741 159.447 790.717 165.348 784.692 170.965C779.172 176.002 781.076 174.673 773.937 180.763C768.27 185.573 765.032 190.655 762.274 196.513C760.21 200.988 760.618 204.709 757.745 209.711C755.456 213.765 754.587 214.426 752.88 215.681C743.209 222.66 736.922 224.783 736.922 224.783C736.817 211.463 738.582 202.833 742.297 199.089C745.024 196.274 746.885 195.972 750.19 193.896C750.19 193.896 752.044 192.867 755.41 190.094C761.63 184.965 766.646 167.881 762.667 163.866C761.637 162.847 760.033 162.941 756.755 163.098C754.482 163.217 750.888 163.717 744.223 166.879C738.732 169.435 733.704 171.874 728.921 176.915C726.639 179.283 725.47 181.179 724.877 181.962C721.325 186.824 712.096 191.505 687.291 190.495C701.216 167.783 709.904 163.023 715.345 163.18C716.349 163.142 719.113 163.401 723.042 162.888C729.432 162.018 734.194 159.622 736.866 158.232C740.682 156.301 743.151 154.257 744.966 153.13C752.978 147.669 761.083 140.881 752.866 138.449C744.747 135.98 733.591 132.567 722.849 136.578C712.176 140.62 700.038 131.625 697.564 127.553Z" fill="#0C2A1B"/>
<path d="M1283.15 144.03C1292.77 134.593 1299.83 133.115 1304.63 133.652C1308.08 134.06 1310.7 135.5 1316.49 135.339C1317.49 135.32 1322.21 135.162 1328.2 132.938C1334.15 130.858 1335.49 128.807 1340.15 126.685C1343.96 124.989 1349.09 123.565 1357.22 123.21C1367.76 122.747 1375.86 124.788 1381.06 126.758C1385.32 128.459 1388 132.613 1387.54 137.099C1387.07 141.96 1386.25 145.995 1385.45 149.135C1384 154.694 1382.28 161.175 1377.51 167.929C1373.26 174.039 1374.77 172.321 1369.16 179.804C1364.65 185.709 1362.56 191.364 1361.11 197.674C1360.05 202.486 1361.24 206.034 1359.49 211.533C1358.05 215.966 1357.41 216.812 1356.01 218.401C1347.97 227.261 1342.28 230.672 1342.28 230.672C1339.42 217.694 1339.31 208.886 1342.14 204.437C1344.21 201.107 1345.89 200.401 1348.75 197.686C1348.75 197.686 1350.27 196.271 1353.04 192.861C1358.03 186.527 1359.31 168.694 1354.56 165.689C1353.33 164.912 1351.79 165.345 1348.62 166.196C1346.35 166.78 1343.02 168.048 1337.18 172.555C1332.35 176.219 1327.96 179.671 1324.36 185.614C1322.63 188.413 1321.82 190.499 1321.48 191.405C1319.04 196.911 1311.03 203.375 1286.57 207.733C1295.34 182.58 1302.82 176.082 1308.1 175.064C1309.14 174.828 1311.9 174.494 1315.56 173.142C1321.69 170.949 1325.83 167.595 1328.15 165.668C1331.47 162.971 1333.44 160.449 1334.92 158.875C1341.65 151.922 1348.12 143.567 1339.59 142.865C1331.05 142.235 1319.49 141.287 1309.85 147.49C1300.22 153.621 1286.51 147.498 1283.15 144.03Z" fill="#0C2A1B"/>
<path d="M369.49 127.565C380.894 120.388 388.107 120.445 392.687 121.991C395.969 123.122 398.225 125.087 403.918 126.16C404.902 126.354 409.543 127.203 415.865 126.302C422.126 125.536 423.875 123.817 428.878 122.734C432.956 121.885 438.271 121.585 446.295 122.966C456.69 124.754 464.174 128.471 468.837 131.501C472.635 134.068 474.369 138.697 472.965 142.983C471.48 147.635 469.812 151.401 468.364 154.299C465.766 159.423 462.712 165.391 456.618 170.978C451.167 176.045 453.002 174.686 445.932 180.806C440.265 185.616 437.027 190.698 434.269 196.556C432.204 201.031 432.613 204.752 429.74 209.754C427.382 213.777 426.582 214.469 424.875 215.724C415.135 222.673 408.848 224.796 408.848 224.796C408.812 211.506 410.577 202.876 414.292 199.131C417.019 196.317 418.811 195.984 422.185 193.939C422.185 193.939 423.97 192.879 427.405 190.137C433.625 185.008 438.671 167.856 434.662 163.908C433.632 162.89 432.028 162.983 428.75 163.141C426.408 163.23 422.883 163.76 416.218 166.922C410.727 169.478 405.699 171.917 400.916 176.958C398.634 179.326 397.396 181.191 396.872 182.005C393.32 186.867 384.12 191.481 359.286 190.538C373.21 167.826 381.899 163.066 387.271 163.193C388.344 163.185 391.108 163.444 394.968 162.901C401.427 162.061 406.189 159.665 408.861 158.274C412.677 156.344 415.145 154.3 416.922 153.076C424.973 147.712 433.078 140.924 424.891 138.425C416.673 135.992 405.586 132.61 394.844 136.621C384.132 140.565 372.033 131.667 369.49 127.565Z" fill="#0C2A1B"/>
<path d="M1013.76 133.086C1025.14 125.977 1032.35 126.034 1036.96 127.512C1040.24 128.644 1042.5 130.608 1048.19 131.682C1049.17 131.876 1053.82 132.725 1060.11 131.891C1066.4 131.057 1068.08 129.308 1073.15 128.256C1077.23 127.407 1082.54 127.106 1090.57 128.488C1100.96 130.276 1108.45 133.993 1113.11 137.023C1116.91 139.59 1118.54 144.256 1117.24 148.504C1115.75 153.156 1114.08 156.922 1112.54 159.857C1109.97 164.914 1106.98 170.912 1100.89 176.499C1095.44 181.566 1097.27 180.207 1090.14 186.297C1084.54 191.138 1081.3 196.22 1078.54 202.077C1076.48 206.552 1076.89 210.273 1074.01 215.275C1071.65 219.299 1070.85 219.99 1069.15 221.245C1059.41 228.194 1053.12 230.317 1053.12 230.317C1053.02 216.997 1054.85 208.397 1058.5 204.622C1061.29 201.838 1063.08 201.506 1066.46 199.46C1066.46 199.46 1068.24 198.401 1071.61 195.628C1077.83 190.499 1082.91 173.445 1078.93 169.43C1077.9 168.411 1076.23 168.474 1073.02 168.662C1070.68 168.751 1067.16 169.281 1060.42 172.413C1055 174.999 1049.97 177.438 1045.12 182.449C1042.91 184.847 1041.67 186.713 1041.08 187.496C1037.52 192.358 1028.39 197.002 1003.49 196.029C1017.48 173.347 1026.1 168.557 1031.54 168.714C1032.62 168.707 1035.38 168.965 1039.24 168.422C1045.63 167.552 1050.39 165.156 1053.13 163.796C1056.88 161.835 1059.42 159.822 1061.16 158.664C1069.18 153.203 1077.28 146.415 1069.13 144.013C1060.95 141.513 1049.86 138.132 1039.12 142.143C1028.37 146.154 1016.31 137.189 1013.76 133.086Z" fill="#0C2A1B"/>
<path d="M133.507 141.565C144.881 134.455 152.094 134.512 156.703 135.991C159.986 137.122 162.241 139.087 167.935 140.16C168.918 140.354 173.56 141.203 179.851 140.37C186.143 139.536 187.823 137.786 192.895 136.734C196.972 135.885 202.287 135.585 210.312 136.966C220.707 138.754 228.191 142.471 232.853 145.501C236.652 148.068 238.287 152.734 236.981 156.983C235.497 161.634 233.829 165.401 232.282 168.336C229.714 173.392 226.728 179.391 220.635 184.978C215.183 190.045 217.019 188.686 209.88 194.775C204.282 199.616 201.044 204.698 198.285 210.556C196.221 215.031 196.63 218.752 193.756 223.754C191.399 227.777 190.599 228.469 188.892 229.724C179.152 236.673 172.865 238.796 172.865 238.796C172.759 225.476 174.594 216.876 178.24 213.101C181.035 210.317 182.828 209.984 186.201 207.939C186.201 207.939 187.987 206.879 191.353 204.107C197.573 198.978 202.658 181.923 198.678 177.908C197.649 176.89 195.976 176.953 192.767 177.141C190.424 177.23 186.899 177.76 180.166 180.892C174.743 183.478 169.715 185.917 164.864 190.928C162.65 193.326 161.413 195.191 160.819 195.974C157.268 200.837 148.137 205.481 123.234 204.508C137.227 181.826 145.847 177.035 151.288 177.193C152.361 177.185 155.125 177.444 158.985 176.901C165.375 176.03 170.137 173.635 172.878 172.274C176.625 170.314 179.162 168.3 180.908 167.143C188.92 161.681 197.026 154.894 188.877 152.492C180.69 149.992 169.603 146.61 158.861 150.621C148.118 154.632 136.049 145.667 133.507 141.565Z" fill="#0C2A1B"/>
<path d="M1480.18 130.099C1493.06 134.393 1500.02 132.681 1503.98 130.124C1506.83 128.238 1508.43 125.815 1513.67 123.426C1514.59 122.973 1518.8 121.145 1525.14 120.454C1531.37 119.767 1533.55 121.061 1538.65 120.938C1542.75 120.798 1547.96 119.777 1555.31 116.631C1564.87 112.41 1571.1 107.04 1574.71 102.97C1577.74 99.6566 1578.14 94.6443 1575.71 90.8339C1573 86.6649 1570.39 83.3869 1568.19 80.884C1564.31 76.5446 1559.81 71.4373 1552.47 67.4269C1545.84 63.7607 1548 64.6339 1539.54 60.3988C1532.82 57.0512 1528.32 52.8385 1524.13 47.8254C1520.86 43.9388 1520.33 40.1686 1516.2 35.9958C1512.9 32.6887 1511.87 32.1452 1509.88 31.3192C1498.72 26.8084 1492.1 26.2459 1492.1 26.2459C1495.57 39.1758 1499.6 47.1405 1504.14 49.9843C1507.52 52.0781 1509.36 51.9626 1513.16 53.1475C1513.16 53.1475 1515.15 53.7635 1519.15 55.6257C1526.57 59.2123 1535.98 74.6748 1533.2 79.5056C1532.48 80.7405 1530.91 81.0046 1527.73 81.5871C1525.39 82.0358 1521.93 82.3648 1514.63 80.8788C1508.61 79.6645 1503.17 78.483 1497.22 74.7408C1494.38 72.944 1492.71 71.4226 1491.93 70.7126C1487.23 66.8222 1477.15 64.4846 1453.46 71.2423C1472.96 90.0419 1482.64 92.7091 1487.78 91.3228C1488.76 91.026 1491.4 90.1464 1495.22 89.7523C1501.72 89.1087 1506.9 90.3518 1509.83 91.0404C1514.05 92.0008 1516.97 93.3739 1519.01 94.1456C1528.21 97.566 1537.8 102.236 1530.62 106.534C1523.33 110.835 1513.55 116.748 1502.15 115.402C1490.8 114.002 1481.5 125.528 1480.18 130.099Z" fill="#0C2A1B"/>
<path d="M531.014 121.617C542.771 128.413 549.934 128.136 554.331 126.429C557.495 125.153 559.551 123.102 565.161 121.815C566.156 121.557 570.653 120.614 576.996 121.211C583.236 121.79 585.111 123.495 590.134 124.402C594.179 125.088 599.487 125.136 607.323 123.533C617.534 121.32 624.714 117.312 629.073 114.052C632.703 111.415 634.104 106.586 632.492 102.365C630.674 97.736 628.779 94.0004 627.131 91.1071C624.203 86.0762 620.82 80.1678 614.439 74.7638C608.678 69.8386 610.615 71.1275 603.183 65.2785C597.273 60.6479 593.708 55.6153 590.62 49.8639C588.194 45.3981 588.433 41.5985 585.223 36.6796C582.661 32.7775 581.76 32.0378 579.971 30.8273C569.948 24.1649 563.581 22.2836 563.581 22.2836C564.381 35.6472 566.729 44.2601 570.597 47.9572C573.491 50.6888 575.313 50.945 578.804 52.8711C578.804 52.8711 580.623 53.8735 584.17 56.5026C590.715 61.5078 596.821 78.5462 593.125 82.719C592.171 83.7838 590.585 83.7278 587.353 83.659C584.966 83.627 581.513 83.254 574.661 80.3303C569.008 77.9302 563.917 75.679 558.839 70.8162C556.418 68.4849 555.091 66.6595 554.472 65.8077C550.654 61.0522 541.243 56.7339 516.68 58.5901C532 80.9267 540.95 85.4868 546.259 85.1616C547.283 85.0687 550.042 84.7372 553.866 85.1199C560.357 85.7954 565.181 88.0547 567.918 89.3196C571.854 91.1081 574.44 93.0407 576.288 94.2079C584.613 99.4085 593.064 105.911 585.164 108.676C577.159 111.424 566.392 115.25 555.495 111.639C544.658 107.985 533.228 117.405 531.014 121.617Z" fill="#0C2A1B"/>
<path d="M1192.32 106.807C1204.12 113.535 1211.24 113.155 1215.73 111.439C1218.82 110.188 1220.93 108.081 1226.53 106.76C1227.46 106.54 1232.01 105.527 1238.36 106.087C1244.6 106.629 1246.43 108.367 1251.52 109.2C1255.57 109.863 1260.87 109.879 1268.7 108.23C1278.9 105.957 1286.05 101.907 1290.39 98.6209C1294.01 95.9623 1295.32 91.1684 1293.64 86.8967C1291.9 82.2954 1289.94 78.5105 1288.26 75.7311C1285.32 70.6134 1281.88 64.8293 1275.53 59.4195C1269.74 54.5284 1271.68 55.8058 1264.22 50.0007C1258.24 45.3445 1254.68 40.3937 1251.52 34.6C1249.11 30.2093 1249.27 26.4518 1246.09 21.5084C1243.46 17.5609 1242.6 16.8871 1240.8 15.6872C1230.68 9.12763 1224.36 7.24036 1224.36 7.24036C1225.18 20.6426 1227.58 29.2415 1231.53 32.8721C1234.44 35.5866 1236.26 35.832 1239.71 37.7811C1239.71 37.7811 1241.59 38.7291 1245.15 41.3372C1251.73 46.3038 1257.93 63.3058 1254.26 67.5003C1253.31 68.5707 1251.67 68.5677 1248.44 68.518C1246.11 68.4565 1242.59 68.1475 1235.68 65.2037C1230.12 62.854 1225.01 60.6329 1219.86 55.7396C1217.47 53.4832 1216.13 51.6657 1215.51 50.8175C1211.66 46.0846 1202.23 41.822 1177.68 43.8232C1193.13 66.0689 1202 70.5591 1207.41 70.2196C1208.43 70.1207 1211.19 69.7729 1215.02 70.1329C1221.45 70.8138 1226.35 73.0009 1229.09 74.2496C1232.98 76.0584 1235.64 77.9321 1237.49 79.0885C1245.8 84.1792 1254.34 90.6921 1246.4 93.5477C1238.47 96.2992 1227.72 100.188 1216.8 96.642C1205.89 93.0959 1194.57 102.54 1192.32 106.807Z" fill="#0C2A1B"/>
<path d="M231.985 112.639C243.742 119.436 250.86 119.098 255.361 117.408C258.465 116.175 260.58 114.081 266.191 112.793C267.126 112.579 271.683 111.592 278.026 112.19C284.266 112.769 286.082 114.518 291.164 115.38C295.208 116.067 300.516 116.115 308.353 114.512C318.564 112.299 325.744 108.291 330.103 105.031C333.733 102.394 335.074 97.6079 333.418 93.3264C331.704 88.7149 329.764 84.9185 328.101 82.1292C325.189 76.9942 321.79 71.1899 315.468 65.7427C309.708 60.8175 311.645 62.1064 304.213 56.2573C298.259 51.5659 294.737 46.5942 291.606 40.7819C289.224 36.377 289.404 32.6206 286.253 27.6585C283.647 23.6956 282.79 23.0167 281.001 21.8062C270.919 15.187 264.611 13.2624 264.611 13.2624C265.351 26.6693 267.699 35.2822 271.627 38.936C274.52 41.6677 276.343 41.9238 279.774 43.8932C279.774 43.8932 281.653 44.8523 285.199 47.4815C291.745 52.4867 297.851 69.525 294.155 73.6978C293.201 74.7627 291.555 74.7499 288.323 74.6811C285.996 74.6059 282.483 74.2761 275.587 71.2916C270.038 68.9091 264.947 66.6578 259.824 61.7342C257.447 59.4638 256.121 57.6384 255.502 56.7866C251.683 52.0311 242.273 47.7128 217.71 49.569C233.029 71.9056 241.876 76.448 247.289 76.1405C248.313 76.0476 251.072 75.7161 254.896 76.0987C261.328 76.8176 266.211 79.0336 268.948 80.2985C272.824 82.1302 275.47 84.0195 277.318 85.1868C285.598 90.3265 294.094 96.8897 286.134 99.6984C278.189 102.403 267.422 106.228 256.525 102.618C245.628 99.0074 234.258 108.384 231.985 112.639Z" fill="#0C2A1B"/>
<path d="M-2.01582 112.639C9.74119 119.436 16.8599 119.098 21.3603 117.408C24.4648 116.175 26.5798 114.081 32.1905 112.793C33.1256 112.579 37.6821 111.592 44.0255 112.19C50.2653 112.769 52.0811 114.518 57.163 115.38C61.2078 116.067 66.5158 116.115 74.352 114.512C84.5633 112.299 91.7432 108.291 96.1024 105.031C99.7323 102.394 101.074 97.6079 99.4176 93.3264C97.7037 88.7149 95.7636 84.9185 94.1008 82.1292C91.1882 76.9942 87.7894 71.1899 81.4679 65.7427C75.7076 60.8175 77.6441 62.1064 70.2124 56.2573C64.2582 51.5659 60.737 46.5942 57.6051 40.7819C55.223 36.377 55.4031 32.6206 52.2526 27.6585C49.6461 23.6956 48.7892 23.0167 47.0005 21.8062C36.9182 15.187 30.6104 13.2624 30.6104 13.2624C31.3503 26.6693 33.6985 35.2822 37.626 38.936C40.5198 41.6677 42.3424 41.9238 45.7735 43.8932C45.7735 43.8932 47.6522 44.8523 51.1989 47.4815C57.7448 52.4867 63.8506 69.525 60.1544 73.6978C59.2007 74.7627 57.5549 74.7499 54.3228 74.6811C51.9952 74.6059 48.4826 74.2761 41.5865 71.2916C36.037 68.9091 30.9466 66.6578 25.8238 61.7342C23.4468 59.4638 22.1206 57.6384 21.5018 56.7866C17.683 52.0311 8.27231 47.7128 -16.2904 49.569C-0.971121 71.9056 7.87512 76.448 13.2885 76.1405C14.3121 76.0476 17.0715 75.7161 20.8952 76.0987C27.3271 76.8176 32.2101 79.0336 34.9475 80.2985C38.8239 82.1302 41.4695 84.0195 43.3176 85.1868C51.5977 90.3265 60.0938 96.8897 52.1335 99.6984C44.1885 102.403 33.4213 106.228 22.5246 102.618C11.628 99.0074 0.257231 108.384 -2.01582 112.639Z" fill="#0C2A1B"/>
<path d="M853.014 125.617C864.771 132.414 871.934 132.137 876.331 130.43C879.495 129.154 881.551 127.102 887.161 125.815C888.2 125.618 892.653 124.614 898.996 125.211C905.28 125.852 907.111 127.496 912.134 128.402C916.179 129.089 921.531 129.198 929.323 127.534C939.534 125.321 946.714 121.313 951.073 118.053C954.703 115.416 956.104 110.586 954.492 106.366C952.674 101.737 950.779 98.0009 949.131 95.1076C946.203 90.0767 942.82 84.1683 936.439 78.7643C930.678 73.8391 932.615 75.128 925.183 69.2789C919.273 64.6484 915.708 59.6158 912.62 53.8644C910.194 49.3986 910.433 45.599 907.223 40.6801C904.661 36.778 903.76 36.0383 901.971 34.8278C891.948 28.1653 885.581 26.2841 885.581 26.2841C886.381 39.6477 888.729 48.2606 892.597 51.9577C895.535 54.7501 897.313 54.9454 900.848 56.9325C900.848 56.9325 902.623 57.874 906.214 60.5639C912.715 65.5083 918.821 82.5467 915.125 86.7195C914.171 87.7843 912.585 87.7283 909.353 87.6595C906.966 87.6275 903.513 87.2545 896.661 84.3308C891.008 81.9307 885.917 79.6795 880.839 74.8167C878.418 72.4854 877.091 70.66 876.472 69.8082C872.654 65.0527 863.243 60.7344 838.68 62.5906C854.044 84.988 862.95 89.4873 868.259 89.1621C869.283 89.0692 872.042 88.7377 875.91 89.1812C882.357 89.7959 887.181 92.0552 889.918 93.3201C893.854 95.1086 896.44 97.0411 898.288 98.2084C906.613 103.409 915.064 109.911 907.164 112.677C899.159 115.425 888.392 119.25 877.495 115.64C866.658 111.986 855.272 121.467 853.014 125.617Z" fill="#0C2A1B"/>
<path d="M1929.51 141.173C1940.88 134.063 1948.09 134.12 1952.7 135.598C1955.99 136.73 1958.24 138.695 1963.94 139.768C1964.92 139.962 1969.56 140.811 1975.85 139.978C1982.14 139.144 1983.82 137.394 1988.89 136.342C1992.97 135.493 1998.29 135.192 2006.31 136.574C2016.71 138.362 2024.19 142.079 2028.85 145.109C2032.65 147.676 2034.29 152.342 2032.98 156.591C2031.5 161.242 2029.83 165.009 2028.28 167.944C2025.71 173 2022.73 178.999 2016.63 184.586C2011.18 189.652 2013.02 188.293 2005.88 194.383C2000.28 199.224 1997.04 204.306 1994.29 210.163C1992.22 214.639 1992.63 218.359 1989.76 223.362C1987.4 227.385 1986.6 228.077 1984.89 229.332C1975.15 236.281 1968.86 238.403 1968.86 238.403C1968.76 225.083 1970.59 216.484 1974.24 212.709C1977.04 209.925 1978.83 209.592 1982.2 207.547C1982.2 207.547 1983.99 206.487 1987.35 203.715C1993.57 198.586 1998.66 181.531 1994.68 177.516C1993.65 176.497 1991.98 176.561 1988.77 176.749C1986.42 176.837 1982.9 177.368 1976.17 180.5C1970.74 183.086 1965.72 185.525 1960.86 190.536C1958.65 192.934 1957.41 194.799 1956.82 195.582C1953.27 200.445 1944.14 205.089 1919.23 204.116C1933.23 181.433 1941.85 176.643 1947.29 176.801C1948.36 176.793 1951.12 177.052 1954.98 176.509C1961.37 175.638 1966.14 173.243 1968.88 171.882C1972.63 169.922 1975.16 167.908 1976.91 166.751C1984.92 161.289 1993.03 154.502 1984.88 152.1C1976.69 149.6 1965.6 146.218 1954.86 150.229C1944.12 154.24 1932.05 145.275 1929.51 141.173Z" fill="#0C2A1B"/>
<path d="M1791.98 112.169C1803.74 118.966 1810.86 118.628 1815.36 116.939C1818.46 115.706 1820.58 113.612 1826.19 112.324C1827.13 112.11 1831.68 111.123 1838.03 111.72C1844.27 112.3 1846.08 114.048 1851.16 114.911C1855.21 115.598 1860.52 115.646 1868.35 114.043C1878.56 111.83 1885.74 107.822 1890.1 104.562C1893.73 101.925 1895.07 97.1387 1893.42 92.8571C1891.7 88.2457 1889.76 84.4492 1888.1 81.66C1885.19 76.525 1881.79 70.7206 1875.47 65.2734C1869.71 60.3482 1871.64 61.6372 1864.21 55.7881C1858.26 51.0967 1854.74 46.125 1851.61 40.3127C1849.22 35.9078 1849.4 32.1513 1846.25 27.1893C1843.65 23.2263 1842.79 22.5474 1841 21.3369C1830.92 14.7177 1824.61 12.7932 1824.61 12.7932C1825.35 26.2001 1827.7 34.8129 1831.63 38.4668C1834.52 41.1984 1836.34 41.4546 1839.77 43.424C1839.77 43.424 1841.65 44.3831 1845.2 47.0122C1851.74 52.0175 1857.85 69.0558 1854.15 73.2286C1853.2 74.2934 1851.55 74.2806 1848.32 74.2118C1846 74.1366 1842.48 73.8069 1835.59 70.8223C1830.04 68.4398 1824.95 66.1886 1819.82 61.265C1817.45 58.9945 1816.12 57.1692 1815.5 56.3173C1811.68 51.5618 1802.27 47.2435 1777.71 49.0998C1793.03 71.4363 1801.88 75.9788 1807.29 75.6713C1808.31 75.5784 1811.07 75.2469 1814.9 75.6295C1821.33 76.3483 1826.21 78.5643 1828.95 79.8292C1832.82 81.6609 1835.47 83.5503 1837.32 84.7176C1845.6 89.8573 1854.09 96.4205 1846.13 99.2291C1838.19 101.934 1827.42 105.759 1816.52 102.149C1805.63 98.5381 1794.26 107.915 1791.98 112.169Z" fill="#0C2A1B"/>
</svg>
