<svg width="1982" height="249" viewBox="0 0 1982 249" fill="none" xmlns="http://www.w3.org/2000/svg">
<path d="M107.665 86.4993C96.2907 79.3895 89.0776 79.4466 84.5666 80.9617C81.2544 82.0264 78.9987 83.9907 73.3051 85.0642C72.3218 85.2583 67.6802 86.1073 61.32 85.304C55.0285 84.4704 53.3487 82.7205 48.2766 81.6686C44.268 80.7892 38.8841 80.5189 30.9282 81.8704C20.4647 83.6888 13.0492 87.375 8.41647 90.4725C4.58831 92.9723 2.88447 97.6686 4.25892 101.887C5.7433 106.538 7.41122 110.305 8.88905 113.27C11.4873 118.394 14.5117 124.295 20.5364 129.912C26.057 134.948 24.1526 133.62 31.2912 139.71C36.9585 144.52 40.1962 149.602 42.9548 155.459C45.0191 159.935 44.6104 163.655 47.4837 168.658C49.7727 172.712 50.6413 173.373 52.3486 174.628C62.0198 181.607 68.3064 183.73 68.3064 183.73C68.412 170.41 66.6464 161.78 62.9317 158.035C60.2047 155.221 58.3436 154.919 55.0389 152.843C55.0389 152.843 53.1848 151.814 49.8183 149.041C43.5987 143.912 38.5822 126.827 42.5619 122.812C43.5913 121.793 45.1957 121.887 48.4732 122.045C50.7469 122.164 54.3408 122.664 61.0054 125.826C66.4967 128.382 71.525 130.821 76.3075 135.862C78.59 138.23 79.7586 140.126 80.3521 140.909C83.9038 145.771 93.133 150.452 117.938 149.442C104.013 126.729 95.3248 121.97 89.8835 122.127C88.8796 122.089 86.1154 122.348 82.1869 121.835C75.7968 120.965 71.0344 118.569 68.3622 117.178C64.5463 115.248 62.0781 113.204 60.263 112.077C52.2511 106.616 44.1454 99.8282 52.3628 97.3957C60.4816 94.9263 71.6376 91.5142 82.3796 95.5252C93.0529 99.5668 105.191 90.5713 107.665 86.4993Z" fill="#FEFEFE"/>
<path d="M1040.66 127.16C1029.29 120.051 1022.08 120.108 1017.57 121.623C1014.25 122.687 1012 124.652 1006.31 125.725C1005.32 125.919 1000.68 126.768 994.32 125.965C988.028 125.132 986.349 123.382 981.277 122.33C977.268 121.45 971.884 121.18 963.928 122.532C953.465 124.35 946.049 128.036 941.416 131.134C937.588 133.633 935.884 138.33 937.259 142.548C938.743 147.2 940.411 150.966 941.889 153.931C944.487 159.055 947.512 164.956 953.536 170.573C959.057 175.61 957.153 174.281 964.291 180.371C969.959 185.181 973.196 190.263 975.955 196.121C978.019 200.596 977.61 204.317 980.484 209.319C982.773 213.373 983.641 214.034 985.349 215.289C995.02 222.268 1001.31 224.391 1001.31 224.391C1001.41 211.071 999.646 202.441 995.932 198.696C993.205 195.882 991.344 195.58 988.039 193.504C988.039 193.504 986.185 192.475 982.818 189.702C976.599 184.573 971.582 167.488 975.562 163.474C976.591 162.455 978.196 162.548 981.473 162.706C983.747 162.825 987.341 163.325 994.005 166.487C999.497 169.043 1004.52 171.482 1009.31 176.523C1011.59 178.891 1012.76 180.787 1013.35 181.57C1016.9 186.432 1026.13 191.113 1050.94 190.103C1037.01 167.391 1028.32 162.631 1022.88 162.788C1021.88 162.75 1019.12 163.009 1015.19 162.496C1008.8 161.626 1004.03 159.23 1001.36 157.839C997.546 155.909 995.078 153.865 993.263 152.738C985.251 147.277 977.145 140.489 985.363 138.057C993.482 135.587 1004.64 132.175 1015.38 136.186C1026.05 140.228 1038.19 131.232 1040.66 127.16Z" fill="#FEFEFE"/>
<path d="M455.079 143.638C445.462 134.201 438.402 132.723 433.598 133.26C430.15 133.668 427.528 135.108 421.736 134.947C420.734 134.928 416.018 134.77 410.033 132.546C404.077 130.466 402.734 128.414 398.076 126.293C394.272 124.597 389.142 123.173 381.007 122.818C370.47 122.355 362.367 124.396 357.166 126.366C352.909 128.067 350.231 132.221 350.692 136.707C351.154 141.568 351.983 145.603 352.782 148.743C354.232 154.302 355.947 160.783 360.714 167.537C364.964 173.647 363.459 171.929 369.066 179.412C373.582 185.317 375.665 190.972 377.115 197.281C378.181 202.093 376.991 205.642 378.735 211.141C380.184 215.574 380.818 216.419 382.22 218.009C390.26 226.869 395.952 230.28 395.952 230.28C398.813 217.302 398.922 208.494 396.088 204.045C394.022 200.715 392.341 200.009 389.48 197.293C389.48 197.293 387.96 195.879 385.186 192.469C380.199 186.135 378.915 168.302 383.672 165.297C384.894 164.52 386.442 164.953 389.611 165.803C391.881 166.388 395.213 167.656 401.053 172.162C405.875 175.827 410.27 179.279 413.872 185.222C415.599 188.021 416.411 190.107 416.751 191.013C419.188 196.519 427.196 202.983 451.664 207.341C442.886 182.188 435.408 175.69 430.131 174.672C429.084 174.436 426.328 174.102 422.672 172.75C416.54 170.557 412.395 167.203 410.08 165.276C406.761 162.579 404.784 160.057 403.309 158.483C396.582 151.53 390.105 143.175 398.637 142.473C407.183 141.842 418.736 140.895 428.38 147.098C438.009 153.229 451.723 147.106 455.079 143.638Z" fill="#FEFEFE"/>
<path d="M1368.74 127.173C1357.34 119.996 1350.12 120.053 1345.54 121.598C1342.26 122.73 1340 124.695 1334.31 125.768C1333.33 125.962 1328.69 126.811 1322.36 125.91C1316.1 125.144 1314.35 123.424 1309.35 122.342C1305.27 121.493 1299.96 121.192 1291.93 122.574C1281.54 124.362 1274.05 128.079 1269.39 131.109C1265.59 133.676 1263.86 138.305 1265.26 142.591C1266.75 147.242 1268.42 151.009 1269.86 153.907C1272.46 159.031 1275.52 164.999 1281.61 170.586C1287.06 175.652 1285.23 174.293 1292.3 180.413C1297.96 185.224 1301.2 190.306 1303.96 196.163C1306.02 200.639 1305.62 204.359 1308.49 209.362C1310.85 213.385 1311.65 214.077 1313.35 215.332C1323.09 222.28 1329.38 224.403 1329.38 224.403C1329.42 211.114 1327.65 202.484 1323.94 198.739C1321.21 195.925 1319.42 195.592 1316.04 193.547C1316.04 193.547 1314.26 192.487 1310.82 189.745C1304.6 184.616 1299.56 167.464 1303.57 163.516C1304.6 162.497 1306.2 162.591 1309.48 162.749C1311.82 162.837 1315.35 163.368 1322.01 166.53C1327.5 169.086 1332.53 171.525 1337.31 176.566C1339.6 178.934 1340.83 180.799 1341.36 181.613C1344.91 186.475 1354.11 191.089 1378.94 190.146C1365.02 167.433 1356.33 162.674 1350.96 162.801C1349.89 162.793 1347.12 163.052 1343.26 162.509C1336.8 161.669 1332.04 159.273 1329.37 157.882C1325.55 155.952 1323.08 153.908 1321.31 152.683C1313.26 147.32 1305.15 140.532 1313.34 138.032C1321.56 135.6 1332.64 132.218 1343.39 136.229C1354.1 140.173 1366.2 131.275 1368.74 127.173Z" fill="#FEFEFE"/>
<path d="M724.466 132.695C713.091 125.585 705.878 125.642 701.269 127.12C697.986 128.252 695.731 130.216 690.037 131.29C689.054 131.484 684.412 132.333 678.121 131.499C671.829 130.666 670.149 128.916 665.077 127.864C661 127.015 655.685 126.714 647.66 128.096C637.265 129.884 629.781 133.601 625.119 136.631C621.32 139.198 619.685 143.864 620.991 148.112C622.475 152.764 624.143 156.53 625.69 159.465C628.258 164.522 631.244 170.52 637.337 176.107C642.789 181.174 640.953 179.815 648.092 185.905C653.691 190.746 656.928 195.828 659.687 201.685C661.751 206.161 661.342 209.881 664.216 214.883C666.574 218.907 667.373 219.599 669.081 220.854C678.821 227.802 685.107 229.925 685.107 229.925C685.213 216.605 683.378 208.006 679.732 204.231C676.937 201.447 675.144 201.114 671.771 199.069C671.771 199.069 669.986 198.009 666.619 195.236C660.399 190.107 655.314 173.053 659.294 169.038C660.323 168.019 661.996 168.083 665.205 168.27C667.548 168.359 671.073 168.89 677.806 172.021C683.229 174.607 688.257 177.046 693.108 182.057C695.322 184.456 696.559 186.321 697.153 187.104C700.705 191.966 709.835 196.611 734.738 195.637C720.745 172.955 712.126 168.165 706.684 168.322C705.612 168.315 702.847 168.574 698.988 168.03C692.598 167.16 687.835 164.764 685.094 163.404C681.347 161.443 678.81 159.43 677.064 158.272C669.052 152.811 660.946 146.023 669.095 143.621C677.282 141.122 688.37 137.74 699.112 141.751C709.854 145.762 721.923 136.797 724.466 132.695Z" fill="#FEFEFE"/>
<path d="M1604.72 141.173C1593.35 134.063 1586.13 134.12 1581.53 135.598C1578.24 136.73 1575.99 138.695 1570.29 139.768C1569.31 139.962 1564.67 140.811 1558.38 139.978C1552.09 139.144 1550.41 137.394 1545.33 136.342C1541.26 135.493 1535.94 135.192 1527.92 136.574C1517.52 138.362 1510.04 142.079 1505.38 145.109C1501.58 147.676 1499.94 152.342 1501.25 156.591C1502.73 161.242 1504.4 165.009 1505.95 167.944C1508.51 173 1511.5 178.999 1517.59 184.586C1523.05 189.652 1521.21 188.293 1528.35 194.383C1533.95 199.224 1537.18 204.306 1539.94 210.163C1542.01 214.639 1541.6 218.359 1544.47 223.362C1546.83 227.385 1547.63 228.077 1549.34 229.332C1559.08 236.281 1565.36 238.403 1565.36 238.403C1565.47 225.083 1563.63 216.484 1559.99 212.709C1557.19 209.925 1555.4 209.592 1552.03 207.547C1552.03 207.547 1550.24 206.487 1546.88 203.715C1540.66 198.586 1535.57 181.531 1539.55 177.516C1540.58 176.497 1542.25 176.561 1545.46 176.749C1547.8 176.837 1551.33 177.368 1558.06 180.5C1563.49 183.086 1568.51 185.525 1573.36 190.536C1575.58 192.934 1576.82 194.799 1577.41 195.582C1580.96 200.445 1590.09 205.089 1614.99 204.116C1601 181.433 1592.38 176.643 1586.94 176.801C1585.87 176.793 1583.1 177.052 1579.24 176.509C1572.85 175.638 1568.09 173.243 1565.35 171.882C1561.6 169.922 1559.07 167.908 1557.32 166.751C1549.31 161.289 1541.2 154.502 1549.35 152.1C1557.54 149.6 1568.63 146.218 1579.37 150.229C1590.11 154.24 1602.18 145.275 1604.72 141.173Z" fill="#FEFEFE"/>
<path d="M258.052 129.707C245.169 134 238.208 132.289 234.244 129.732C231.402 127.846 229.801 125.423 224.563 123.034C223.641 122.581 219.426 120.753 213.092 120.062C206.863 119.375 204.683 120.669 199.581 120.546C195.48 120.406 190.271 119.385 182.918 116.239C173.36 112.018 167.133 106.648 163.518 102.578C160.493 99.2645 160.092 94.2522 162.519 90.4418C165.231 86.2728 167.839 82.9948 170.035 80.4919C173.914 76.1525 178.417 71.0452 185.754 67.0348C192.387 63.3686 190.231 64.2418 198.687 60.0067C205.408 56.6591 209.912 52.4464 214.094 47.4333C217.368 43.5468 217.898 39.7765 222.031 35.6037C225.326 32.2966 226.357 31.7531 228.353 30.9271C239.511 26.4163 246.126 25.8538 246.126 25.8538C242.656 38.7837 238.624 46.7484 234.091 49.5922C230.707 51.6861 228.87 51.5705 225.064 52.7554C225.064 52.7554 223.08 53.3714 219.077 55.2336C211.659 58.8202 202.251 74.2827 205.033 79.1135C205.753 80.3484 207.318 80.6125 210.498 81.1951C212.843 81.6437 216.3 81.9728 223.6 80.4867C229.62 79.2724 235.06 78.0909 241.012 74.3487C243.853 72.5519 245.519 71.0305 246.296 70.3205C250.994 66.4301 261.08 64.0925 284.768 70.8502C265.27 89.6498 255.586 92.317 250.45 90.9307C249.466 90.6339 246.83 89.7543 243.007 89.3602C236.512 88.7166 231.333 89.9597 228.397 90.6483C224.182 91.6087 221.26 92.9818 219.215 93.7535C210.015 97.1739 200.428 101.844 207.612 106.142C214.9 110.443 224.678 116.355 236.078 115.01C247.429 113.61 256.731 125.136 258.052 129.707Z" fill="#FEFEFE"/>
<path d="M1207.21 121.225C1195.46 128.022 1188.29 127.745 1183.9 126.038C1180.73 124.762 1178.68 122.71 1173.07 121.423C1172.07 121.165 1167.58 120.222 1161.23 120.819C1154.99 121.399 1153.12 123.104 1148.1 124.01C1144.05 124.697 1138.74 124.745 1130.91 123.142C1120.69 120.929 1113.52 116.921 1109.16 113.661C1105.53 111.023 1104.13 106.194 1105.74 101.973C1107.55 97.3444 1109.45 93.6088 1111.1 90.7155C1114.03 85.6846 1117.41 79.7762 1123.79 74.3722C1129.55 69.447 1127.61 70.7359 1135.05 64.8869C1140.96 60.2563 1144.52 55.2237 1147.61 49.4723C1150.04 45.0065 1149.8 41.2069 1153.01 36.288C1155.57 32.3859 1156.47 31.6462 1158.26 30.4357C1168.28 23.7733 1174.65 21.892 1174.65 21.892C1173.85 35.2556 1171.5 43.8685 1167.63 47.5656C1164.74 50.2972 1162.92 50.5533 1159.43 52.4795C1159.43 52.4795 1157.61 53.4819 1154.06 56.111C1147.51 61.1162 1141.41 78.1546 1145.1 82.3274C1146.06 83.3922 1147.64 83.3362 1150.88 83.2674C1153.26 83.2354 1156.72 82.8624 1163.57 79.9387C1169.22 77.5386 1174.31 75.2874 1179.39 70.4246C1181.81 68.0933 1183.14 66.2679 1183.76 65.4161C1187.58 60.6606 1196.99 56.3423 1221.55 58.1985C1206.23 80.5351 1197.28 85.0952 1191.97 84.77C1190.95 84.6771 1188.19 84.3456 1184.36 84.7283C1177.87 85.4038 1173.05 87.6631 1170.31 88.928C1166.37 90.7165 1163.79 92.6491 1161.94 93.8163C1153.62 99.0169 1145.16 105.519 1153.07 108.285C1161.07 111.032 1171.84 114.858 1182.73 111.247C1193.57 107.594 1205 117.014 1207.21 121.225Z" fill="#FEFEFE"/>
<path d="M545.906 106.415C534.109 113.143 526.992 112.763 522.502 111.047C519.405 109.796 517.302 107.689 511.699 106.368C510.765 106.148 506.215 105.135 499.868 105.694C493.625 106.237 491.799 107.975 486.712 108.808C482.663 109.471 477.355 109.487 469.528 107.838C459.33 105.565 452.174 101.515 447.834 98.2288C444.22 95.5702 442.907 90.7763 444.588 86.5046C446.329 81.9033 448.292 78.1185 449.971 75.339C452.914 70.2213 456.347 64.4372 462.7 59.0274C468.49 54.1363 466.545 55.4137 474.012 49.6086C479.993 44.9524 483.544 40.0016 486.71 34.2079C489.118 29.8172 488.96 26.0597 492.14 21.1163C494.77 17.1688 495.631 16.495 497.426 15.2951C507.548 8.73554 513.867 6.84827 513.867 6.84827C513.048 20.2506 510.649 28.8494 506.7 32.48C503.79 35.1945 501.966 35.4399 498.523 37.389C498.523 37.389 496.639 38.337 493.077 40.9452C486.501 45.9117 480.295 62.9137 483.966 67.1082C484.914 68.1786 486.56 68.1756 489.792 68.1259C492.12 68.0644 495.635 67.7554 502.548 64.8116C508.112 62.4619 513.215 60.2408 518.367 55.3475C520.757 53.0911 522.094 51.2736 522.718 50.4254C526.565 45.6925 536.001 41.4299 560.552 43.4311C545.101 65.6768 536.229 70.167 530.817 69.8275C529.794 69.7286 527.037 69.3808 523.211 69.7408C516.775 70.4217 511.879 72.6088 509.134 73.8575C505.247 75.6663 502.59 77.54 500.735 78.6964C492.425 83.7871 483.89 90.3 491.834 93.1556C499.763 95.9071 510.507 99.796 521.425 96.2499C532.343 92.7038 543.658 102.148 545.906 106.415Z" fill="#FEFEFE"/>
<path d="M1506.24 112.247C1494.49 119.043 1487.37 118.706 1482.87 117.016C1479.76 115.783 1477.65 113.689 1472.04 112.401C1471.1 112.187 1466.55 111.2 1460.2 111.797C1453.96 112.377 1452.15 114.125 1447.07 114.988C1443.02 115.675 1437.71 115.723 1429.88 114.12C1419.67 111.907 1412.49 107.899 1408.13 104.639C1404.5 102.002 1403.15 97.2158 1404.81 92.9343C1406.52 88.3228 1408.46 84.5264 1410.13 81.7371C1413.04 76.6021 1416.44 70.7978 1422.76 65.3506C1428.52 60.4254 1426.58 61.7143 1434.02 55.8652C1439.97 51.1738 1443.49 46.2021 1446.62 40.3898C1449.01 35.9849 1448.83 32.2285 1451.98 27.2664C1454.58 23.3035 1455.44 22.6246 1457.23 21.4141C1467.31 14.7949 1473.62 12.8703 1473.62 12.8703C1472.88 26.2772 1470.53 34.8901 1466.6 38.544C1463.71 41.2756 1461.89 41.5317 1458.46 43.5012C1458.46 43.5012 1456.58 44.4602 1453.03 47.0894C1446.48 52.0946 1440.38 69.1329 1444.07 73.3058C1445.03 74.3706 1446.67 74.3578 1449.91 74.289C1452.23 74.2138 1455.75 73.884 1462.64 70.8995C1468.19 68.517 1473.28 66.2658 1478.4 61.3421C1480.78 59.0717 1482.11 57.2463 1482.73 56.3945C1486.55 51.639 1495.96 47.3207 1520.52 49.1769C1505.2 71.5135 1496.35 76.0559 1490.94 75.7484C1489.92 75.6555 1487.16 75.324 1483.33 75.7066C1476.9 76.4255 1472.02 78.6415 1469.28 79.9064C1465.4 81.7381 1462.76 83.6275 1460.91 84.7947C1452.63 89.9344 1444.13 96.4976 1452.1 99.3063C1460.04 102.011 1470.81 105.836 1481.7 102.226C1492.6 98.6153 1503.97 107.992 1506.24 112.247Z" fill="#FEFEFE"/>
<path d="M1740.24 112.247C1728.49 119.043 1721.37 118.706 1716.87 117.016C1713.76 115.783 1711.65 113.689 1706.04 112.401C1705.1 112.187 1700.55 111.2 1694.2 111.797C1687.96 112.377 1686.15 114.125 1681.07 114.988C1677.02 115.675 1671.71 115.723 1663.88 114.12C1653.67 111.907 1646.49 107.899 1642.13 104.639C1638.5 102.002 1637.15 97.2158 1638.81 92.9343C1640.52 88.3228 1642.46 84.5264 1644.13 81.7371C1647.04 76.6021 1650.44 70.7978 1656.76 65.3506C1662.52 60.4254 1660.58 61.7143 1668.02 55.8652C1673.97 51.1738 1677.49 46.2021 1680.62 40.3898C1683.01 35.9849 1682.83 32.2285 1685.98 27.2664C1688.58 23.3035 1689.44 22.6246 1691.23 21.4141C1701.31 14.7949 1707.62 12.8703 1707.62 12.8703C1706.88 26.2772 1704.53 34.8901 1700.6 38.544C1697.71 41.2756 1695.89 41.5317 1692.46 43.5012C1692.46 43.5012 1690.58 44.4602 1687.03 47.0894C1680.48 52.0946 1674.38 69.1329 1678.07 73.3058C1679.03 74.3706 1680.67 74.3578 1683.91 74.289C1686.23 74.2138 1689.75 73.884 1696.64 70.8995C1702.19 68.517 1707.28 66.2658 1712.4 61.3421C1714.78 59.0717 1716.11 57.2463 1716.73 56.3945C1720.55 51.639 1729.96 47.3207 1754.52 49.1769C1739.2 71.5135 1730.35 76.0559 1724.94 75.7484C1723.92 75.6555 1721.16 75.324 1717.33 75.7066C1710.9 76.4255 1706.02 78.6415 1703.28 79.9064C1699.4 81.7381 1696.76 83.6275 1694.91 84.7947C1686.63 89.9344 1678.13 96.4976 1686.1 99.3063C1694.04 102.011 1704.81 105.836 1715.7 102.226C1726.6 98.6153 1737.97 107.992 1740.24 112.247Z" fill="#FEFEFE"/>
<path d="M885.214 125.225C873.457 132.022 866.294 131.745 861.898 130.038C858.734 128.762 856.678 126.71 851.068 125.423C850.029 125.226 845.576 124.222 839.233 124.819C832.949 125.459 831.117 127.104 826.095 128.01C822.05 128.697 816.698 128.806 808.906 127.142C798.695 124.929 791.515 120.921 787.156 117.661C783.526 115.024 782.125 110.194 783.737 105.973C785.554 101.344 787.45 97.6088 789.098 94.7155C792.026 89.6846 795.409 83.7762 801.79 78.3722C807.55 73.447 805.614 74.7359 813.046 68.8869C818.956 64.2563 822.521 59.2237 825.609 53.4723C828.035 49.0065 827.795 45.2069 831.005 40.288C833.568 36.3859 834.469 35.6462 836.258 34.4357C846.28 27.7733 852.648 25.892 852.648 25.892C851.848 39.2556 849.5 47.8685 845.632 51.5656C842.694 54.358 840.916 54.5534 837.381 56.5404C837.381 56.5404 835.606 57.4819 832.015 60.1718C825.513 65.1162 819.407 82.1546 823.104 86.3274C824.057 87.3922 825.644 87.3362 828.876 87.2674C831.263 87.2354 834.716 86.8624 841.568 83.9387C847.221 81.5386 852.311 79.2874 857.39 74.4246C859.811 72.0933 861.137 70.2679 861.756 69.4161C865.575 64.6606 874.986 60.3423 899.548 62.1985C884.185 84.5959 875.279 89.0952 869.97 88.77C868.946 88.6771 866.187 88.3456 862.319 88.7891C855.871 89.4038 851.048 91.6631 848.311 92.928C844.375 94.7165 841.789 96.6491 839.94 97.8163C831.616 103.017 823.164 109.519 831.065 112.285C839.07 115.032 849.837 118.858 860.733 115.247C871.571 111.594 882.957 121.075 885.214 125.225Z" fill="#FEFEFE"/>
<path d="M1843.12 223.867C1829.53 223.848 1823.48 220.014 1820.53 216.332C1818.43 213.64 1817.68 210.835 1813.48 206.906C1812.68 206.215 1809.33 203.112 1803.54 200.446C1797.79 197.847 1795.38 198.351 1790.58 196.615C1786.73 195.18 1782.05 192.589 1776.14 187.24C1768.42 180.203 1764.22 173.134 1762.09 168.127C1760.27 164.024 1761.48 159.144 1764.99 156.301C1768.89 153.209 1772.4 150.929 1775.28 149.252C1780.33 146.369 1786.23 142.956 1794.46 141.483C1801.91 140.112 1799.59 140.256 1808.95 138.925C1816.39 137.884 1822 135.319 1827.55 131.893C1831.89 129.248 1833.59 125.841 1838.84 123.196C1843.01 121.106 1844.16 120.918 1846.32 120.769C1858.33 120.034 1864.78 121.601 1864.78 121.601C1857.38 132.76 1851.03 139.032 1845.83 140.29C1841.89 141.231 1840.25 140.508 1836.2 140.454C1836.2 140.454 1834.19 140.377 1829.73 140.903C1821.63 141.918 1807.8 153.593 1808.9 159.057C1809.19 160.457 1810.59 161.204 1813.42 162.766C1815.5 163.936 1818.68 165.346 1826.07 166.255C1832.17 167.015 1837.7 167.621 1844.53 165.963C1847.8 165.161 1849.86 164.247 1850.82 163.821C1856.51 161.623 1866.82 162.609 1887.14 176.538C1862.61 188.205 1852.65 187.629 1848.22 184.683C1847.38 184.09 1845.16 182.418 1841.59 180.861C1835.7 178.159 1830.4 177.693 1827.4 177.414C1823.09 176.986 1819.89 177.36 1817.7 177.443C1807.89 177.765 1797.32 179.15 1802.77 185.506C1808.31 191.899 1815.71 200.61 1826.94 202.953C1838.15 205.23 1843.24 219.144 1843.12 223.867Z" fill="#FEFEFE"/>
<path d="M1923.72 125.13C1910.24 123.533 1904.66 119.022 1902.17 115.022C1900.4 112.105 1899.98 109.232 1896.26 104.841C1895.54 104.061 1892.58 100.59 1887.14 97.27C1881.72 94.0199 1879.27 94.2403 1874.71 91.9585C1871.06 90.0864 1866.7 86.9685 1861.46 80.97C1854.61 73.0828 1851.26 65.5734 1849.72 60.352C1848.39 56.0663 1850.16 51.3597 1853.98 48.9447C1858.21 46.3258 1861.96 44.4693 1865.01 43.1387C1870.37 40.8628 1876.62 38.157 1884.97 37.6502C1892.53 37.1552 1890.21 37.0278 1899.66 36.7937C1907.17 36.6242 1913.03 34.7288 1918.95 31.9716C1923.57 29.848 1925.65 26.6614 1931.17 24.6443C1935.56 23.0536 1936.72 23.0007 1938.88 23.1024C1950.9 23.7685 1957.12 26.0747 1957.12 26.0747C1948.48 36.2987 1941.44 41.7904 1936.13 42.435C1932.1 42.9121 1930.56 42.0036 1926.54 41.4782C1926.54 41.4782 1924.56 41.1693 1920.07 41.1733C1911.9 41.2398 1896.81 51.2292 1897.27 56.7844C1897.4 58.2084 1898.7 59.1134 1901.33 60.9938C1903.26 62.3976 1906.25 64.1667 1913.49 65.9282C1919.45 67.3913 1924.88 68.6367 1931.86 67.7834C1935.19 67.3661 1937.35 66.6984 1938.35 66.3868C1944.26 64.865 1954.38 67.0419 1972.94 83.2373C1947.23 91.9749 1937.4 90.2452 1933.34 86.8052C1932.58 86.1179 1930.57 84.2 1927.2 82.2389C1921.67 78.8705 1916.46 77.7915 1913.51 77.1653C1909.28 76.2407 1906.05 76.2399 1903.88 76.068C1894.09 75.2482 1883.43 75.3946 1888.1 82.3406C1892.87 89.3345 1899.2 98.846 1910.09 102.48C1920.96 106.043 1924.4 120.454 1923.72 125.13Z" fill="#FEFEFE"/>
</svg>
