<svg width="3544" height="147" viewBox="0 0 3544 147" fill="none" xmlns="http://www.w3.org/2000/svg">
<path d="M495.145 75.0882C488.439 70.8964 484.187 70.93 481.527 71.8233C479.574 72.451 478.244 73.6092 474.887 74.2421C474.308 74.3566 471.571 74.8571 467.821 74.3835C464.112 73.892 463.121 72.8603 460.131 72.2401C457.767 71.7216 454.593 71.5623 449.902 72.3591C443.733 73.4312 439.361 75.6045 436.63 77.4308C434.373 78.9046 433.368 81.6735 434.179 84.1603C435.054 86.903 436.037 89.1235 436.908 90.8719C438.44 93.893 440.223 97.3718 443.776 100.684C447.03 103.653 445.908 102.87 450.116 106.46C453.458 109.296 455.367 112.293 456.993 115.746C458.21 118.385 457.969 120.578 459.663 123.528C461.013 125.918 461.525 126.308 462.532 127.048C468.234 131.162 471.94 132.414 471.94 132.414C472.002 124.561 470.961 119.473 468.771 117.265C467.163 115.606 466.066 115.427 464.118 114.204C464.118 114.204 463.025 113.597 461.04 111.962C457.373 108.938 454.415 98.8651 456.761 96.498C457.368 95.8972 458.314 95.9526 460.247 96.0453C461.587 96.1156 463.706 96.4104 467.636 98.2748C470.873 99.7815 473.838 101.219 476.657 104.192C478.003 105.588 478.692 106.706 479.042 107.167C481.136 110.034 486.578 112.794 501.202 112.198C492.992 98.8074 487.87 96.0011 484.662 96.0939C484.07 96.0715 482.44 96.2241 480.124 95.9218C476.356 95.4086 473.549 93.9961 471.973 93.1762C469.723 92.0382 468.268 90.833 467.198 90.1686C462.474 86.9486 457.695 82.9468 462.54 81.5126C467.327 80.0567 473.904 78.0449 480.237 80.4098C486.53 82.7926 493.687 77.489 495.145 75.0882Z" fill="#FEFEFE"/>
<path d="M149.892 84.8032C144.221 79.2392 140.059 78.368 137.226 78.6845C135.194 78.9252 133.648 79.7741 130.233 79.679C129.642 79.6676 126.862 79.5749 123.333 78.2636C119.822 77.0373 119.03 75.8276 116.283 74.5769C114.04 73.5769 111.016 72.7374 106.22 72.5278C100.007 72.2551 95.2294 73.4583 92.1635 74.6197C89.6535 75.6225 88.0745 78.0721 88.3464 80.7168C88.6186 83.5829 89.1075 85.9617 89.5785 87.8129C90.4331 91.0905 91.4447 94.9114 94.255 98.8939C96.7609 102.496 95.8736 101.483 99.1796 105.895C101.842 109.377 103.07 112.71 103.925 116.431C104.554 119.268 103.852 121.36 104.88 124.602C105.734 127.216 106.108 127.714 106.935 128.651C111.675 133.875 115.031 135.886 115.031 135.886C116.718 128.234 116.782 123.041 115.111 120.418C113.893 118.455 112.902 118.039 111.215 116.438C111.215 116.438 110.319 115.604 108.684 113.593C105.743 109.859 104.986 99.3448 107.791 97.5731C108.511 97.115 109.424 97.3702 111.292 97.8717C112.631 98.2164 114.595 98.9638 118.038 101.621C120.882 103.781 123.473 105.817 125.596 109.321C126.614 110.971 127.094 112.2 127.294 112.735C128.731 115.981 133.452 119.792 147.878 122.362C142.702 107.532 138.293 103.7 135.182 103.1C134.565 102.961 132.94 102.764 130.785 101.967C127.169 100.674 124.726 98.6969 123.361 97.5608C121.404 95.9706 120.238 94.4836 119.369 93.5555C115.403 89.4563 111.583 84.5301 116.614 84.1161C121.653 83.7446 128.464 83.1859 134.15 86.8431C139.827 90.4577 147.913 86.848 149.892 84.8032Z" fill="#FEFEFE"/>
<path d="M688.574 75.0955C681.85 70.864 677.597 70.8977 674.897 71.8089C672.962 72.4763 671.632 73.6344 668.275 74.2674C667.695 74.3818 664.959 74.8823 661.232 74.3512C657.54 73.8993 656.509 72.8856 653.559 72.2474C651.155 71.7469 648.021 71.5696 643.29 72.3843C637.162 73.4385 632.749 75.6298 630 77.4164C627.76 78.9299 626.738 81.6591 627.566 84.1856C628.441 86.9283 629.425 89.1488 630.279 90.8576C631.81 93.8786 633.611 97.3971 637.204 100.691C640.418 103.678 639.336 102.877 643.504 106.486C646.846 109.322 648.754 112.318 650.381 115.771C651.598 118.41 651.357 120.604 653.051 123.553C654.441 125.925 654.913 126.333 655.919 127.073C661.662 131.17 665.368 132.421 665.368 132.421C665.39 124.586 664.349 119.498 662.159 117.29C660.551 115.631 659.494 115.435 657.505 114.229C657.505 114.229 656.453 113.604 654.427 111.987C650.76 108.963 647.785 98.8507 650.149 96.5232C650.756 95.9224 651.702 95.9778 653.634 96.0706C655.016 96.1229 657.094 96.4357 661.023 98.3C664.261 99.8068 667.225 101.245 670.045 104.217C671.391 105.613 672.12 106.713 672.43 107.192C674.524 110.059 679.948 112.78 694.59 112.224C686.38 98.8327 681.258 96.0264 678.09 96.1012C677.458 96.0967 675.828 96.2494 673.552 95.9291C669.744 95.4339 666.936 94.0214 665.361 93.2014C663.111 92.0635 661.656 90.8582 660.609 90.1363C655.862 86.9739 651.083 82.9721 655.91 81.4982C660.755 80.064 667.292 78.0702 673.625 80.4351C679.941 82.7603 687.074 77.5143 688.574 75.0955Z" fill="#FEFEFE"/>
<path d="M308.719 78.3511C302.013 74.1593 297.76 74.193 295.042 75.0646C293.107 75.7319 291.777 76.89 288.42 77.523C287.84 77.6374 285.104 78.138 281.394 77.6464C277.685 77.1549 276.695 76.1232 273.704 75.503C271.3 75.0025 268.166 74.8252 263.435 75.6399C257.307 76.6941 252.894 78.8854 250.145 80.672C247.906 82.1855 246.942 84.9364 247.711 87.4412C248.587 90.1839 249.57 92.4044 250.482 94.1349C251.996 97.1162 253.756 100.653 257.349 103.947C260.563 106.934 259.481 106.133 263.69 109.723C266.991 112.577 268.9 115.574 270.526 119.027C271.743 121.666 271.502 123.859 273.196 126.809C274.586 129.181 275.058 129.589 276.064 130.329C281.807 134.425 285.514 135.677 285.514 135.677C285.576 127.824 284.494 122.754 282.345 120.528C280.696 118.886 279.64 118.69 277.651 117.484C277.651 117.484 276.598 116.86 274.613 115.225C270.946 112.201 267.948 102.146 270.294 99.7788C270.901 99.1781 271.888 99.2155 273.78 99.3262C275.161 99.3786 277.239 99.6913 281.209 101.538C284.406 103.062 287.371 104.5 290.231 107.455C291.536 108.869 292.266 109.969 292.615 110.43C294.71 113.297 300.093 116.035 314.775 115.461C306.525 102.088 301.443 99.264 298.235 99.3568C297.603 99.3523 295.973 99.505 293.697 99.1848C289.93 98.6715 287.122 97.259 285.506 96.457C283.297 95.3011 281.801 94.1138 280.771 93.4315C276.047 90.2115 271.268 86.2097 276.073 84.7935C280.9 83.3196 287.437 81.3258 293.77 83.6907C300.104 86.0555 307.22 80.7699 308.719 78.3511Z" fill="#FEFEFE"/>
<path d="M827.706 83.3499C821 79.1581 816.747 79.1917 814.03 80.0633C812.094 80.7307 810.764 81.8888 807.408 82.5218C806.828 82.6362 804.091 83.1367 800.382 82.6452C796.672 82.1537 795.682 81.122 792.692 80.5018C790.288 80.0013 787.154 79.824 782.423 80.6387C776.294 81.6929 771.882 83.8842 769.133 85.6708C766.893 87.1843 765.929 89.9352 766.699 92.44C767.574 95.1827 768.557 97.4032 769.469 99.1336C770.984 102.115 772.744 105.651 776.336 108.946C779.551 111.933 778.468 111.132 782.677 114.722C785.978 117.576 787.887 120.572 789.513 124.026C790.731 126.665 790.49 128.858 792.184 131.807C793.574 134.18 794.045 134.587 795.052 135.327C800.794 139.424 804.501 140.676 804.501 140.676C804.563 132.823 803.482 127.752 801.332 125.527C799.684 123.885 798.627 123.689 796.638 122.483C796.638 122.483 795.585 121.858 793.601 120.224C789.934 117.2 786.935 107.145 789.282 104.778C789.889 104.177 790.875 104.214 792.767 104.325C794.148 104.377 796.226 104.69 800.196 106.536C803.393 108.061 806.358 109.499 809.218 112.454C810.523 113.868 811.253 114.967 811.603 115.429C813.697 118.296 819.08 121.034 833.763 120.46C825.513 107.087 820.431 104.263 817.223 104.356C816.59 104.351 814.96 104.504 812.685 104.184C808.917 103.67 806.109 102.258 804.493 101.456C802.284 100.3 800.788 99.1126 799.759 98.4303C795.035 95.2103 790.256 91.2085 795.06 89.7922C799.888 88.3184 806.424 86.3246 812.758 88.6895C819.091 91.0543 826.207 85.7687 827.706 83.3499Z" fill="#FEFEFE"/>
<path d="M60.7274 78.2782C53.1314 80.8098 49.0273 79.8004 46.6904 78.2933C45.0144 77.1811 44.0704 75.7528 40.9827 74.344C40.4388 74.0772 37.9535 72.9993 34.219 72.592C30.5466 72.1869 29.2613 72.9494 26.2532 72.8773C23.8358 72.7945 20.7645 72.1928 16.4288 70.338C10.7937 67.8492 7.12223 64.6831 4.99112 62.2834C3.20739 60.3299 2.97092 57.3747 4.40227 55.1282C6.00086 52.6702 7.53866 50.7375 8.83324 49.2618C11.1207 46.7034 13.7753 43.6922 18.1013 41.3277C22.0121 39.1662 20.7409 39.681 25.7265 37.184C29.6888 35.2103 32.3446 32.7266 34.8098 29.7709C36.7406 27.4795 37.0527 25.2566 39.4898 22.7963C41.4323 20.8465 42.0404 20.5261 43.217 20.0391C49.7955 17.3796 53.6959 17.0479 53.6959 17.0479C51.6498 24.6712 49.2725 29.3671 46.6002 31.0438C44.605 32.2783 43.522 32.2101 41.2777 32.9087C41.2777 32.9087 40.1082 33.2719 37.7481 34.3699C33.3741 36.4845 27.8277 45.601 29.4676 48.4492C29.8922 49.1772 30.815 49.3329 32.6898 49.6764C34.0722 49.941 36.1108 50.1349 40.4147 49.2588C43.9642 48.5429 47.1711 47.8462 50.6807 45.6399C52.3554 44.5805 53.3378 43.6835 53.7962 43.2649C56.5655 40.9712 62.5126 39.593 76.4785 43.5772C64.9827 54.6612 59.2731 56.2338 56.245 55.4164C55.6649 55.2414 54.1106 54.7228 51.8568 54.4905C48.0277 54.111 44.974 54.8439 43.2431 55.2499C40.7579 55.8162 39.0352 56.6257 37.8294 57.0807C32.4052 59.0973 26.7529 61.8506 30.9881 64.3845C35.2852 66.9205 41.0502 70.4065 47.7716 69.6132C54.4637 68.7879 59.9483 75.5836 60.7274 78.2782Z" fill="#FEFEFE"/>
<path d="M593.341 71.589C586.409 75.5963 582.186 75.433 579.594 74.4266C577.728 73.6741 576.516 72.4648 573.208 71.7057C572.622 71.5537 569.97 70.9976 566.23 71.3497C562.552 71.6913 561.446 72.6967 558.485 73.231C556.1 73.636 552.97 73.6642 548.35 72.7192C542.33 71.4144 538.097 69.0513 535.527 67.1292C533.386 65.5743 532.561 62.7271 533.511 60.2386C534.583 57.5093 535.7 55.3069 536.672 53.601C538.398 50.6348 540.393 47.1513 544.155 43.9652C547.551 41.0614 546.409 41.8213 550.791 38.3728C554.275 35.6426 556.378 32.6755 558.198 29.2845C559.629 26.6516 559.487 24.4114 561.38 21.5113C562.891 19.2107 563.422 18.7745 564.476 18.0608C570.386 14.1327 574.14 13.0235 574.14 13.0235C573.669 20.9026 572.284 25.9806 570.004 28.1604C568.297 29.7709 567.223 29.9219 565.165 31.0576C565.165 31.0576 564.092 31.6485 562.001 33.1986C558.142 36.1497 554.542 46.1952 556.721 48.6555C557.283 49.2833 558.219 49.2502 560.124 49.2097C561.532 49.1908 563.568 48.9709 567.607 47.2471C570.94 45.8321 573.942 44.5048 576.936 41.6378C578.363 40.2632 579.145 39.187 579.51 38.6848C581.762 35.881 587.31 33.335 601.792 34.4294C592.76 47.5988 587.483 50.2873 584.353 50.0956C583.749 50.0409 582.122 49.8454 579.868 50.071C576.041 50.4693 573.197 51.8013 571.583 52.5471C569.262 53.6016 567.737 54.741 566.648 55.4292C561.74 58.4954 556.757 62.3291 561.415 63.9595C566.134 65.5796 572.483 67.8351 578.907 65.7063C585.297 63.5521 592.036 69.1061 593.341 71.589Z" fill="#FEFEFE"/>
<path d="M203.442 62.8573C196.486 66.8237 192.291 66.5997 189.643 65.588C187.817 64.8502 186.577 63.6081 183.274 62.8295C182.723 62.6997 180.04 62.1023 176.298 62.4323C172.618 62.7522 171.541 63.7768 168.542 64.2679C166.155 64.6588 163.025 64.6685 158.41 63.6962C152.398 62.3559 148.179 59.9679 145.62 58.0307C143.489 56.4632 142.715 53.6368 143.706 51.1182C144.733 48.4054 145.89 46.1738 146.88 44.5351C148.615 41.5178 150.639 38.1075 154.385 34.918C157.798 32.0342 156.652 32.7874 161.054 29.3648C164.581 26.6196 166.674 23.7006 168.541 20.2847C169.96 17.696 169.867 15.4807 171.742 12.5661C173.293 10.2387 173.8 9.84146 174.859 9.13401C180.826 5.26657 184.552 4.15386 184.552 4.15386C184.069 12.0557 182.655 17.1254 180.326 19.266C178.611 20.8664 177.535 21.0111 175.506 22.1603C175.506 22.1603 174.394 22.7192 172.294 24.2569C168.418 27.1851 164.758 37.2093 166.923 39.6823C167.482 40.3135 168.452 40.3116 170.358 40.2823C171.73 40.2461 173.803 40.0639 177.879 38.3283C181.159 36.9429 184.168 35.6334 187.205 32.7484C188.615 31.418 189.403 30.3464 189.771 29.8464C192.039 27.0559 197.602 24.5427 212.077 25.7226C202.968 38.8384 197.736 41.4857 194.546 41.2856C193.942 41.2273 192.317 41.0222 190.061 41.2345C186.266 41.6359 183.38 42.9254 181.762 43.6616C179.47 44.7281 177.903 45.8328 176.81 46.5146C171.91 49.516 166.878 53.3559 171.562 55.0396C176.236 56.6618 182.571 58.9547 189.008 56.8639C195.445 54.7731 202.116 60.3411 203.442 62.8573Z" fill="#FEFEFE"/>
<path d="M769.645 66.2953C762.713 70.3027 758.516 70.1034 755.863 69.1074C754.032 68.3804 752.785 67.1456 749.477 66.3865C748.926 66.26 746.24 65.6784 742.5 66.0305C738.821 66.3722 737.75 67.4031 734.754 67.9119C732.369 68.3168 729.24 68.3451 724.62 67.4C718.599 66.0952 714.366 63.7322 711.796 61.8101C709.656 60.2552 708.865 57.4334 709.841 54.909C710.852 52.1902 711.996 49.9519 712.976 48.3073C714.693 45.2798 716.697 41.8577 720.424 38.6461C723.82 35.7422 722.679 36.5022 727.06 33.0536C730.571 30.2876 732.647 27.3564 734.493 23.9295C735.898 21.3325 735.792 19.1177 737.649 16.1921C739.186 13.8556 739.691 13.4554 740.746 12.7417C746.69 8.83908 750.409 7.7044 750.409 7.7044C749.973 15.6089 748.588 20.687 746.273 22.8412C744.567 24.4518 743.492 24.6028 741.469 25.7639C741.469 25.7639 740.361 26.3294 738.27 27.8795C734.411 30.8305 730.811 40.8761 732.99 43.3363C733.553 43.9641 734.523 43.9566 736.429 43.916C737.801 43.8717 739.872 43.6773 743.938 41.9176C747.21 40.5129 750.211 39.1856 753.231 36.2827C754.633 34.9441 755.414 33.8679 755.779 33.3657C758.031 30.5619 763.579 28.0159 778.061 29.1103C769.029 42.2796 763.813 44.9578 760.622 44.7765C760.018 44.7217 758.391 44.5263 756.137 44.7519C752.345 45.1757 749.466 46.4822 747.852 47.228C745.566 48.3079 744.007 49.4219 742.917 50.1101C738.035 53.1404 733.026 57.0099 737.719 58.6659C742.404 60.2605 748.752 62.5159 755.176 60.3872C761.601 58.2585 768.305 63.787 769.645 66.2953Z" fill="#FEFEFE"/>
<path d="M907.608 66.2953C900.676 70.3027 896.479 70.1034 893.826 69.1074C891.996 68.3804 890.749 67.1456 887.441 66.3865C886.889 66.26 884.203 65.6784 880.463 66.0305C876.784 66.3722 875.713 67.4031 872.717 67.9119C870.332 68.3168 867.203 68.3451 862.583 67.4C856.562 66.0952 852.329 63.7322 849.759 61.8101C847.619 60.2552 846.828 57.4334 847.804 54.909C848.815 52.1902 849.959 49.9519 850.939 48.3073C852.656 45.2798 854.66 41.8577 858.387 38.6461C861.784 35.7422 860.642 36.5022 865.023 33.0536C868.534 30.2876 870.61 27.3564 872.457 23.9295C873.861 21.3325 873.755 19.1177 875.612 16.1921C877.149 13.8556 877.654 13.4554 878.709 12.7417C884.653 8.83908 888.372 7.7044 888.372 7.7044C887.936 15.6089 886.552 20.687 884.236 22.8412C882.53 24.4518 881.455 24.6028 879.432 25.7639C879.432 25.7639 878.325 26.3294 876.234 27.8795C872.374 30.8305 868.774 40.8761 870.954 43.3363C871.516 43.9641 872.486 43.9566 874.392 43.916C875.764 43.8717 877.835 43.6773 881.901 41.9176C885.173 40.5129 888.174 39.1856 891.194 36.2827C892.596 34.9441 893.378 33.8679 893.743 33.3657C895.994 30.5619 901.543 28.0159 916.024 29.1103C906.992 42.2796 901.777 44.9578 898.585 44.7765C897.982 44.7217 896.355 44.5263 894.1 44.7519C890.308 45.1757 887.429 46.4822 885.815 47.228C883.53 48.3079 881.97 49.4219 880.88 50.1101C875.998 53.1404 870.989 57.0099 875.683 58.6659C880.367 60.2605 886.715 62.5159 893.14 60.3872C899.564 58.2585 906.268 63.787 907.608 66.2953Z" fill="#FEFEFE"/>
<path d="M403.494 73.9471C396.562 77.9545 392.339 77.7911 389.747 76.7847C387.881 76.0323 386.669 74.8229 383.361 74.0638C382.749 73.9477 380.123 73.3557 376.383 73.7078C372.678 74.0854 371.599 75.0549 368.638 75.5892C366.253 75.9941 363.097 76.0583 358.503 75.0773C352.483 73.7725 348.25 71.4095 345.68 69.4874C343.539 67.9325 342.713 65.0852 343.664 62.5967C344.735 59.8675 345.853 57.665 346.825 55.9592C348.551 52.993 350.546 49.5095 354.308 46.3234C357.704 43.4195 356.562 44.1795 360.944 40.7309C364.428 38.0008 366.531 35.0337 368.351 31.6427C369.782 29.0097 369.64 26.7695 371.533 23.8694C373.044 21.5688 373.575 21.1327 374.629 20.419C380.539 16.4909 384.293 15.3817 384.293 15.3817C383.821 23.2607 382.437 28.3388 380.156 30.5185C378.424 32.1649 377.376 32.2801 375.292 33.4516C375.292 33.4516 374.245 34.0067 372.128 35.5927C368.295 38.5078 364.695 48.5534 366.874 51.0136C367.436 51.6414 368.372 51.6084 370.277 51.5678C371.685 51.549 373.72 51.3291 377.76 49.6053C381.093 48.1902 384.095 46.8629 387.089 43.9959C388.516 42.6214 389.298 41.5452 389.663 41.043C391.915 38.2392 397.463 35.6932 411.945 36.7876C402.887 49.9928 397.636 52.6455 394.506 52.4538C393.902 52.399 392.275 52.2036 389.995 52.465C386.194 52.8275 383.35 54.1595 381.736 54.9053C379.415 55.9597 377.89 57.0992 376.801 57.7874C371.893 60.8535 366.91 64.6873 371.568 66.3177C376.287 67.9378 382.636 70.1932 389.06 68.0645C395.449 65.9103 402.163 71.5001 403.494 73.9471Z" fill="#FEFEFE"/>
<path d="M969.355 134.584C961.349 134.572 957.777 132.312 956.04 130.141C954.804 128.554 954.362 126.9 951.881 124.584C951.41 124.176 949.436 122.347 946.024 120.775C942.63 119.243 941.209 119.54 938.38 118.516C936.114 117.67 933.352 116.143 929.87 112.989C925.317 108.84 922.84 104.672 921.581 101.72C920.51 99.3011 921.224 96.4238 923.295 94.7479C925.591 92.9247 927.663 91.5802 929.359 90.5919C932.341 88.8922 935.814 86.8796 940.667 86.011C945.062 85.203 943.693 85.2876 949.213 84.5028C953.597 83.8893 956.904 82.3773 960.18 80.3573C962.739 78.7974 963.74 76.7886 966.832 75.2295C969.293 73.9973 969.972 73.8865 971.242 73.7983C978.325 73.3651 982.129 74.289 982.129 74.289C977.768 80.8682 974.023 84.5663 970.956 85.3077C968.632 85.8628 967.667 85.4364 965.277 85.4042C965.277 85.4042 964.093 85.3594 961.466 85.6691C956.687 86.2676 948.533 93.1513 949.184 96.3728C949.355 97.198 950.181 97.6387 951.85 98.5597C953.077 99.2494 954.948 100.081 959.307 100.616C962.901 101.064 966.163 101.422 970.191 100.444C972.116 99.9714 973.332 99.4327 973.9 99.1813C977.254 97.8855 983.331 98.4668 995.309 106.679C980.848 113.558 974.976 113.218 972.364 111.482C971.869 111.131 970.56 110.146 968.456 109.228C964.986 107.635 961.858 107.36 960.087 107.195C957.551 106.943 955.66 107.164 954.372 107.213C948.589 107.403 942.355 108.219 945.566 111.966C948.836 115.736 953.196 120.872 959.821 122.253C966.429 123.596 969.432 131.799 969.355 134.584Z" fill="#FEFEFE"/>
<path d="M1441.47 75.0994C1434.76 70.9076 1430.51 70.9413 1427.85 71.8346C1425.89 72.4623 1424.56 73.6204 1421.21 74.2533C1420.63 74.3678 1417.89 74.8683 1414.14 74.3947C1410.43 73.9032 1409.44 72.8715 1406.45 72.2513C1404.09 71.7329 1400.91 71.5735 1396.22 72.3703C1390.05 73.4424 1385.68 75.6158 1382.95 77.442C1380.69 78.9158 1379.69 81.6847 1380.5 84.1716C1381.37 86.9143 1382.36 89.1348 1383.23 90.8832C1384.76 93.9042 1386.54 97.383 1390.1 100.695C1393.35 103.664 1392.23 102.881 1396.44 106.471C1399.78 109.308 1401.69 112.304 1403.31 115.757C1404.53 118.396 1404.29 120.59 1405.98 123.539C1407.33 125.929 1407.85 126.319 1408.85 127.059C1414.55 131.174 1418.26 132.425 1418.26 132.425C1418.32 124.572 1417.28 119.484 1415.09 117.276C1413.48 115.617 1412.39 115.439 1410.44 114.215C1410.44 114.215 1409.34 113.608 1407.36 111.973C1403.69 108.949 1400.74 98.8763 1403.08 96.5092C1403.69 95.9084 1404.63 95.9638 1406.57 96.0565C1407.91 96.1269 1410.03 96.4216 1413.96 98.286C1417.19 99.7928 1420.16 101.231 1422.98 104.203C1424.32 105.599 1425.01 106.717 1425.36 107.178C1427.46 110.045 1432.9 112.805 1447.52 112.21C1439.31 98.8186 1434.19 96.0124 1430.98 96.1051C1430.39 96.0827 1428.76 96.2353 1426.44 95.9331C1422.68 95.4198 1419.87 94.0073 1418.29 93.1874C1416.04 92.0495 1414.59 90.8442 1413.52 90.1799C1408.79 86.9598 1404.02 82.958 1408.86 81.5238C1413.65 80.0679 1420.22 78.0562 1426.56 80.421C1432.85 82.8039 1440.01 77.5002 1441.47 75.0994Z" fill="#FEFEFE"/>
<path d="M1096.21 84.8145C1090.54 79.2504 1086.38 78.3793 1083.55 78.6957C1081.51 78.9364 1079.97 79.7853 1076.55 79.6902C1075.96 79.6788 1073.18 79.5862 1069.65 78.2749C1066.14 77.0485 1065.35 75.8388 1062.6 74.5882C1060.36 73.5881 1057.34 72.7487 1052.54 72.539C1046.33 72.2663 1041.55 73.4695 1038.48 74.6309C1035.97 75.6338 1034.4 78.0833 1034.67 80.7281C1034.94 83.5941 1035.43 85.9729 1035.9 87.8241C1036.75 91.1017 1037.77 94.9226 1040.58 98.9051C1043.08 102.507 1042.19 101.494 1045.5 105.906C1048.16 109.388 1049.39 112.722 1050.25 116.442C1050.87 119.279 1050.17 121.371 1051.2 124.613C1052.05 127.227 1052.43 127.725 1053.26 128.662C1058 133.886 1061.35 135.897 1061.35 135.897C1063.04 128.246 1063.1 123.053 1061.43 120.43C1060.21 118.466 1059.22 118.05 1057.54 116.449C1057.54 116.449 1056.64 115.615 1055 113.604C1052.06 109.87 1051.31 99.3561 1054.11 97.5843C1054.83 97.1263 1055.74 97.3815 1057.61 97.8829C1058.95 98.2276 1060.92 98.975 1064.36 101.632C1067.2 103.793 1069.79 105.828 1071.92 109.332C1072.93 110.982 1073.41 112.212 1073.61 112.746C1075.05 115.993 1079.77 119.804 1094.2 122.373C1089.02 107.543 1084.61 103.712 1081.5 103.111C1080.89 102.973 1079.26 102.775 1077.11 101.979C1073.49 100.685 1071.05 98.7082 1069.68 97.572C1067.72 95.9819 1066.56 94.4948 1065.69 93.5667C1061.72 89.4676 1057.9 84.5413 1062.93 84.1273C1067.97 83.7558 1074.78 83.1971 1080.47 86.8543C1086.15 90.469 1094.23 86.8593 1096.21 84.8145Z" fill="#FEFEFE"/>
<path d="M1634.89 75.1067C1628.17 70.8753 1623.92 70.9089 1621.22 71.8202C1619.28 72.4875 1617.95 73.6456 1614.6 74.2786C1614.02 74.3931 1611.28 74.8936 1607.55 74.3624C1603.86 73.9105 1602.83 72.8968 1599.88 72.2586C1597.48 71.7581 1594.34 71.5808 1589.61 72.3956C1583.48 73.4497 1579.07 75.641 1576.32 77.4276C1574.08 78.9411 1573.06 81.6703 1573.89 84.1968C1574.76 86.9395 1575.75 89.16 1576.6 90.8688C1578.13 93.8898 1579.93 97.4083 1583.52 100.702C1586.74 103.69 1585.66 102.888 1589.82 106.497C1593.17 109.333 1595.07 112.329 1596.7 115.783C1597.92 118.421 1597.68 120.615 1599.37 123.564C1600.76 125.937 1601.23 126.344 1602.24 127.084C1607.98 131.181 1611.69 132.433 1611.69 132.433C1611.71 124.597 1610.67 119.509 1608.48 117.301C1606.87 115.642 1605.81 115.446 1603.83 114.24C1603.83 114.24 1602.77 113.615 1600.75 111.999C1597.08 108.975 1594.11 98.8619 1596.47 96.5344C1597.08 95.9337 1598.02 95.989 1599.95 96.0818C1601.34 96.1342 1603.41 96.4469 1607.34 98.3113C1610.58 99.818 1613.55 101.256 1616.37 104.228C1617.71 105.624 1618.44 106.724 1618.75 107.204C1620.84 110.071 1626.27 112.791 1640.91 112.235C1632.7 98.8439 1627.58 96.0376 1624.41 96.1124C1623.78 96.1079 1622.15 96.2606 1619.87 95.9404C1616.06 95.4451 1613.26 94.0326 1611.68 93.2127C1609.43 92.0747 1607.98 90.8695 1606.93 90.1475C1602.18 86.9851 1597.4 82.9833 1602.23 81.5094C1607.08 80.0752 1613.61 78.0814 1619.95 80.4463C1626.26 82.7715 1633.39 77.5255 1634.89 75.1067Z" fill="#FEFEFE"/>
<path d="M1255.04 78.3624C1248.33 74.1705 1244.08 74.2042 1241.36 75.0758C1239.43 75.7431 1238.1 76.9013 1234.74 77.5342C1234.16 77.6487 1231.42 78.1492 1227.71 77.6577C1224 77.1661 1223.01 76.1344 1220.02 75.5142C1217.62 75.0137 1214.49 74.8364 1209.76 75.6512C1203.63 76.7053 1199.21 78.8966 1196.47 80.6832C1194.23 82.1967 1193.26 84.9477 1194.03 87.4524C1194.91 90.1951 1195.89 92.4156 1196.8 94.1461C1198.32 97.1274 1200.08 100.664 1203.67 103.958C1206.88 106.945 1205.8 106.144 1210.01 109.734C1213.31 112.589 1215.22 115.585 1216.85 119.038C1218.06 121.677 1217.82 123.871 1219.52 126.82C1220.91 129.192 1221.38 129.6 1222.38 130.34C1228.13 134.437 1231.83 135.688 1231.83 135.688C1231.9 127.835 1230.81 122.765 1228.66 120.539C1227.02 118.898 1225.96 118.702 1223.97 117.496C1223.97 117.496 1222.92 116.871 1220.93 115.236C1217.27 112.212 1214.27 102.157 1216.61 99.7901C1217.22 99.1893 1218.21 99.2267 1220.1 99.3374C1221.48 99.3898 1223.56 99.7025 1227.53 101.549C1230.73 103.074 1233.69 104.512 1236.55 107.466C1237.86 108.88 1238.59 109.98 1238.94 110.441C1241.03 113.308 1246.41 116.046 1261.1 115.473C1252.85 102.1 1247.76 99.2753 1244.56 99.368C1243.92 99.3636 1242.29 99.5162 1240.02 99.196C1236.25 98.6828 1233.44 97.2703 1231.83 96.4683C1229.62 95.3124 1228.12 94.1251 1227.09 93.4428C1222.37 90.2228 1217.59 86.2209 1222.39 84.8047C1227.22 83.3309 1233.76 81.337 1240.09 83.7019C1246.42 86.0668 1253.54 80.7811 1255.04 78.3624Z" fill="#FEFEFE"/>
<path d="M1774.03 83.3611C1767.32 79.1693 1763.07 79.203 1760.35 80.0746C1758.41 80.7419 1757.08 81.9 1753.73 82.533C1753.15 82.6474 1750.41 83.148 1746.7 82.6564C1742.99 82.1649 1742 81.1332 1739.01 80.513C1736.61 80.0125 1733.47 79.8352 1728.74 80.6499C1722.61 81.7041 1718.2 83.8954 1715.45 85.682C1713.21 87.1955 1712.25 89.9464 1713.02 92.4512C1713.89 95.1939 1714.88 97.4144 1715.79 99.1449C1717.3 102.126 1719.06 105.663 1722.66 108.957C1725.87 111.944 1724.79 111.143 1729 114.733C1732.3 117.587 1734.21 120.584 1735.83 124.037C1737.05 126.676 1736.81 128.869 1738.5 131.819C1739.89 134.191 1740.37 134.599 1741.37 135.339C1747.11 139.435 1750.82 140.687 1750.82 140.687C1750.88 132.834 1749.8 127.764 1747.65 125.538C1746 123.896 1744.95 123.7 1742.96 122.494C1742.96 122.494 1741.91 121.87 1739.92 120.235C1736.25 117.211 1733.26 107.156 1735.6 104.789C1736.21 104.188 1737.2 104.225 1739.09 104.336C1740.47 104.389 1742.55 104.701 1746.52 106.548C1749.71 108.072 1752.68 109.51 1755.54 112.465C1756.84 113.879 1757.57 114.979 1757.92 115.44C1760.02 118.307 1765.4 121.045 1780.08 120.471C1771.83 107.098 1766.75 104.274 1763.54 104.367C1762.91 104.362 1761.28 104.515 1759.01 104.195C1755.24 103.682 1752.43 102.269 1750.81 101.467C1748.6 100.311 1747.11 99.1239 1746.08 98.4416C1741.36 95.2215 1736.58 91.2197 1741.38 89.8035C1746.21 88.3296 1752.74 86.3358 1759.08 88.7007C1765.41 91.0655 1772.53 85.7799 1774.03 83.3611Z" fill="#FEFEFE"/>
<path d="M1028.89 66.3981C1021.29 68.9296 1017.19 67.9203 1014.85 66.4132C1013.18 65.301 1012.23 63.8726 1009.14 62.4639C1008.6 62.197 1006.12 61.1191 1002.38 60.7119C998.709 60.3068 997.423 61.0693 994.415 60.9972C991.998 60.9143 988.927 60.3127 984.591 58.4578C978.956 55.969 975.284 52.803 973.153 50.4033C971.369 48.4498 971.133 45.4946 972.564 43.2481C974.163 40.7901 975.701 38.8574 976.995 37.3817C979.283 34.8233 981.937 31.8121 986.263 29.4476C990.174 27.286 988.903 27.8009 993.889 25.3039C997.851 23.3302 1000.51 20.8465 1002.97 17.8908C1004.9 15.5993 1005.21 13.3765 1007.65 10.9162C1009.59 8.96637 1010.2 8.64598 1011.38 8.15894C1017.96 5.49943 1021.86 5.16781 1021.86 5.16781C1019.81 12.7911 1017.43 17.487 1014.76 19.1636C1012.77 20.3982 1011.68 20.33 1009.44 21.0286C1009.44 21.0286 1008.27 21.3918 1005.91 22.4897C1001.54 24.6044 995.99 33.7208 997.63 36.569C998.054 37.2971 998.977 37.4528 1000.85 37.7963C1002.23 38.0608 1004.27 38.2548 1008.58 37.3786C1012.13 36.6627 1015.33 35.9661 1018.84 33.7598C1020.52 32.7004 1021.5 31.8034 1021.96 31.3848C1024.73 29.0911 1030.67 27.7128 1044.64 31.6971C1033.14 42.7811 1027.44 44.3536 1024.41 43.5363C1023.83 43.3613 1022.27 42.8427 1020.02 42.6103C1016.19 42.2309 1013.14 42.9638 1011.41 43.3698C1008.92 43.936 1007.2 44.7456 1005.99 45.2006C1000.57 47.2172 994.915 49.9705 999.15 52.5044C1003.45 55.0404 1009.21 58.5264 1015.93 57.7331C1022.63 56.9078 1028.11 63.7035 1028.89 66.3981Z" fill="#FEFEFE"/>
<path d="M1539.66 71.6002C1532.73 75.6076 1528.51 75.4442 1525.91 74.4378C1524.05 73.6853 1522.84 72.476 1519.53 71.7169C1518.94 71.5649 1516.29 71.0088 1512.55 71.3609C1508.87 71.7026 1507.77 72.708 1504.81 73.2422C1502.42 73.6472 1499.29 73.6755 1494.67 72.7304C1488.65 71.4256 1484.42 69.0626 1481.85 67.1405C1479.71 65.5856 1478.88 62.7383 1479.83 60.2498C1480.9 57.5206 1482.02 55.3181 1482.99 53.6122C1484.72 50.6461 1486.71 47.1626 1490.48 43.9764C1493.87 41.0726 1492.73 41.8325 1497.11 38.384C1500.6 35.6539 1502.7 32.6868 1504.52 29.2958C1505.95 26.6628 1505.81 24.4226 1507.7 21.5225C1509.21 19.2219 1509.74 18.7857 1510.8 18.0721C1516.71 14.144 1520.46 13.0348 1520.46 13.0348C1519.99 20.9138 1518.6 25.9918 1516.32 28.1716C1514.62 29.7821 1513.54 29.9332 1511.49 31.0688C1511.49 31.0688 1510.41 31.6598 1508.32 33.2099C1504.46 36.1609 1500.86 46.2065 1503.04 48.6667C1503.6 49.2945 1504.54 49.2615 1506.44 49.2209C1507.85 49.2021 1509.89 48.9821 1513.93 47.2584C1517.26 45.8433 1520.26 44.516 1523.26 41.649C1524.68 40.2745 1525.47 39.1983 1525.83 38.696C1528.08 35.8923 1533.63 33.3462 1548.11 34.4406C1539.08 47.61 1533.8 50.2986 1530.67 50.1069C1530.07 50.0521 1528.44 49.8566 1526.19 50.0822C1522.36 50.4805 1519.52 51.8126 1517.9 52.5583C1515.58 53.6128 1514.06 54.7522 1512.97 55.4404C1508.06 58.5066 1503.08 62.3403 1507.74 63.9708C1512.45 65.5909 1518.8 67.8463 1525.23 65.7176C1531.62 63.5634 1538.36 69.1173 1539.66 71.6002Z" fill="#FEFEFE"/>
<path d="M1149.76 62.8686C1142.81 66.8349 1138.61 66.6109 1135.96 65.5992C1134.14 64.8615 1132.9 63.6193 1129.59 62.8407C1129.04 62.711 1126.36 62.1135 1122.62 62.4435C1118.94 62.7635 1117.86 63.788 1114.86 64.2791C1112.48 64.67 1109.35 64.6798 1104.73 63.7074C1098.72 62.3671 1094.5 59.9792 1091.94 58.0419C1089.81 56.4744 1089.04 53.648 1090.03 51.1294C1091.05 48.4166 1092.21 46.1851 1093.2 44.5464C1094.94 41.529 1096.96 38.1188 1100.71 34.9292C1104.12 32.0455 1102.97 32.7987 1107.37 29.376C1110.9 26.6308 1112.99 23.7119 1114.86 20.296C1116.28 17.7073 1116.19 15.4919 1118.06 12.5774C1119.61 10.25 1120.12 9.85269 1121.18 9.14524C1127.15 5.2778 1130.87 4.16509 1130.87 4.16509C1130.39 12.0669 1128.98 17.1367 1126.65 19.2772C1124.93 20.8777 1123.86 21.0223 1121.83 22.1715C1121.83 22.1715 1120.72 22.7304 1118.61 24.2682C1114.74 27.1964 1111.08 37.2205 1113.24 39.6936C1113.8 40.3247 1114.77 40.3229 1116.68 40.2936C1118.05 40.2573 1120.12 40.0751 1124.2 38.3395C1127.48 36.9542 1130.49 35.6446 1133.53 32.7596C1134.94 31.4292 1135.72 30.3577 1136.09 29.8576C1138.36 27.0672 1143.92 24.554 1158.4 25.7338C1149.29 38.8496 1144.06 41.497 1140.87 41.2968C1140.26 41.2385 1138.64 41.0334 1136.38 41.2457C1132.59 41.6471 1129.7 42.9366 1128.08 43.6729C1125.79 44.7393 1124.22 45.844 1123.13 46.5258C1118.23 49.5272 1113.2 53.3672 1117.88 55.0508C1122.56 56.673 1128.89 58.9659 1135.33 56.8751C1141.77 54.7844 1148.44 60.3523 1149.76 62.8686Z" fill="#FEFEFE"/>
<path d="M1715.97 66.3066C1709.03 70.3139 1704.84 70.1147 1702.18 69.1186C1700.35 68.3917 1699.11 67.1569 1695.8 66.3978C1695.25 66.2713 1692.56 65.6897 1688.82 66.0417C1685.14 66.3834 1684.07 67.4143 1681.07 67.9231C1678.69 68.3281 1675.56 68.3563 1670.94 67.4113C1664.92 66.1065 1660.69 63.7434 1658.12 61.8213C1655.98 60.2664 1655.19 57.4446 1656.16 54.9203C1657.17 52.2014 1658.32 49.9631 1659.3 48.3186C1661.01 45.291 1663.02 41.8689 1666.74 38.6573C1670.14 35.7535 1669 36.5134 1673.38 33.0649C1676.89 30.2988 1678.97 27.3676 1680.81 23.9407C1682.22 21.3437 1682.11 19.1289 1683.97 16.2034C1685.51 13.8669 1686.01 13.4666 1687.07 12.7529C1693.01 8.85031 1696.73 7.71563 1696.73 7.71563C1696.29 15.6201 1694.91 20.6982 1692.59 22.8525C1690.89 24.463 1689.81 24.614 1687.79 25.7752C1687.79 25.7752 1686.68 26.3406 1684.59 27.8907C1680.73 30.8417 1677.13 40.8873 1679.31 43.3476C1679.87 43.9754 1680.84 43.9678 1682.75 43.9273C1684.12 43.8829 1686.19 43.6885 1690.26 41.9288C1693.53 40.5241 1696.53 39.1969 1699.55 36.294C1700.95 34.9553 1701.73 33.8791 1702.1 33.3769C1704.35 30.5731 1709.9 28.0271 1724.38 29.1215C1715.35 42.2908 1710.13 44.969 1706.94 44.7877C1706.34 44.7329 1704.71 44.5375 1702.46 44.7631C1698.67 45.1869 1695.79 46.4934 1694.17 47.2392C1691.89 48.3191 1690.33 49.4331 1689.24 50.1213C1684.36 53.1516 1679.35 57.0212 1684.04 58.6771C1688.72 60.2717 1695.07 62.5272 1701.5 60.3984C1707.92 58.2697 1714.63 63.7982 1715.97 66.3066Z" fill="#FEFEFE"/>
<path d="M1853.93 66.3066C1847 70.3139 1842.8 70.1147 1840.15 69.1186C1838.32 68.3917 1837.07 67.1569 1833.76 66.3978C1833.21 66.2713 1830.52 65.6897 1826.78 66.0417C1823.1 66.3834 1822.03 67.4143 1819.04 67.9231C1816.65 68.3281 1813.52 68.3563 1808.9 67.4113C1802.88 66.1065 1798.65 63.7434 1796.08 61.8213C1793.94 60.2664 1793.15 57.4446 1794.12 54.9203C1795.14 52.2014 1796.28 49.9631 1797.26 48.3186C1798.98 45.291 1800.98 41.8689 1804.71 38.6573C1808.1 35.7535 1806.96 36.5134 1811.34 33.0649C1814.85 30.2988 1816.93 27.3676 1818.78 23.9407C1820.18 21.3437 1820.08 19.1289 1821.93 16.2034C1823.47 13.8669 1823.97 13.4666 1825.03 12.7529C1830.97 8.85031 1834.69 7.71563 1834.69 7.71563C1834.26 15.6201 1832.87 20.6982 1830.56 22.8525C1828.85 24.463 1827.78 24.614 1825.75 25.7752C1825.75 25.7752 1824.64 26.3406 1822.55 27.8907C1818.69 30.8417 1815.09 40.8873 1817.27 43.3476C1817.84 43.9754 1818.81 43.9678 1820.71 43.9273C1822.08 43.8829 1824.16 43.6885 1828.22 41.9288C1831.49 40.5241 1834.49 39.1969 1837.51 36.294C1838.92 34.9553 1839.7 33.8791 1840.06 33.3769C1842.31 30.5731 1847.86 28.0271 1862.34 29.1215C1853.31 42.2908 1848.1 44.969 1844.91 44.7877C1844.3 44.7329 1842.67 44.5375 1840.42 44.7631C1836.63 45.1869 1833.75 46.4934 1832.14 47.2392C1829.85 48.3191 1828.29 49.4331 1827.2 50.1213C1822.32 53.1516 1817.31 57.0212 1822 58.6771C1826.69 60.2717 1833.04 62.5272 1839.46 60.3984C1845.88 58.2697 1852.59 63.7982 1853.93 66.3066Z" fill="#FEFEFE"/>
<path d="M1349.81 73.9584C1342.88 77.9657 1338.66 77.8023 1336.07 76.7959C1334.2 76.0435 1332.99 74.8341 1329.68 74.0751C1329.07 73.9589 1326.44 73.367 1322.7 73.719C1319 74.0966 1317.92 75.0661 1314.96 75.6004C1312.57 76.0054 1309.42 76.0695 1304.82 75.0885C1298.8 73.7838 1294.57 71.4207 1292 69.4986C1289.86 67.9437 1289.03 65.0964 1289.98 62.6079C1291.06 59.8787 1292.17 57.6763 1293.15 55.9704C1294.87 53.0042 1296.87 49.5207 1300.63 46.3346C1304.02 43.4308 1302.88 44.1907 1307.26 40.7422C1310.75 38.012 1312.85 35.0449 1314.67 31.6539C1316.1 29.021 1315.96 26.7807 1317.85 23.8807C1319.36 21.58 1319.9 21.1439 1320.95 20.4302C1326.86 16.5021 1330.61 15.3929 1330.61 15.3929C1330.14 23.272 1328.76 28.35 1326.48 30.5298C1324.74 32.1762 1323.7 32.2913 1321.61 33.4628C1321.61 33.4628 1320.57 34.0179 1318.45 35.6039C1314.62 38.519 1311.02 48.5646 1313.19 51.0249C1313.76 51.6527 1314.69 51.6196 1316.6 51.5791C1318.01 51.5602 1320.04 51.3403 1324.08 49.6165C1327.41 48.2014 1330.42 46.8742 1333.41 44.0071C1334.84 42.6326 1335.62 41.5564 1335.98 41.0542C1338.24 38.2504 1343.78 35.7044 1358.27 36.7988C1349.21 50.004 1343.96 52.6567 1340.83 52.465C1340.22 52.4102 1338.6 52.2148 1336.32 52.4763C1332.51 52.8387 1329.67 54.1707 1328.06 54.9165C1325.74 55.971 1324.21 57.1104 1323.12 57.7986C1318.21 60.8648 1313.23 64.6985 1317.89 66.3289C1322.61 67.949 1328.96 70.2045 1335.38 68.0757C1341.77 65.9215 1348.48 71.5114 1349.81 73.9584Z" fill="#FEFEFE"/>
<path d="M2264.87 75.0958C2257.9 70.9039 2253.49 70.9376 2250.73 71.8309C2248.7 72.4586 2247.32 73.6167 2243.83 74.2497C2243.23 74.3641 2240.39 74.8647 2236.49 74.3911C2232.64 73.8996 2231.61 72.8679 2228.51 72.2477C2226.05 71.7292 2222.75 71.5699 2217.88 72.3666C2211.48 73.4387 2206.94 75.6121 2204.1 77.4383C2201.75 78.9122 2200.71 81.6811 2201.55 84.1679C2202.46 86.9106 2203.48 89.1311 2204.39 90.8795C2205.98 93.9005 2207.83 97.3794 2211.52 100.691C2214.9 103.661 2213.73 102.877 2218.1 106.468C2221.57 109.304 2223.56 112.3 2225.25 115.754C2226.51 118.393 2226.26 120.586 2228.02 123.535C2229.42 125.926 2229.95 126.315 2231 127.055C2236.92 131.17 2240.77 132.422 2240.77 132.422C2240.83 124.568 2239.75 119.48 2237.48 117.273C2235.81 115.613 2234.67 115.435 2232.65 114.211C2232.65 114.211 2231.51 113.604 2229.45 111.97C2225.64 108.946 2222.57 98.8727 2225.01 96.5055C2225.64 95.9048 2226.62 95.9601 2228.63 96.0529C2230.02 96.1232 2232.22 96.418 2236.3 98.2823C2239.66 99.7891 2242.74 101.227 2245.67 104.199C2247.07 105.595 2247.78 106.713 2248.15 107.175C2250.32 110.042 2255.97 112.802 2271.16 112.206C2262.63 98.815 2257.31 96.0087 2253.98 96.1015C2253.37 96.079 2251.67 96.2316 2249.27 95.9294C2245.36 95.4162 2242.44 94.0037 2240.8 93.1837C2238.47 92.0458 2236.96 90.8405 2235.84 90.1762C2230.94 86.9562 2225.98 82.9544 2231.01 81.5202C2235.98 80.0643 2242.81 78.0525 2249.39 80.4174C2255.92 82.8002 2263.35 77.4966 2264.87 75.0958Z" fill="#FEFEFE"/>
<path d="M1906.31 84.8108C1900.42 79.2467 1896.1 78.3756 1893.16 78.692C1891.05 78.9327 1889.44 79.7817 1885.9 79.6866C1885.28 79.6752 1882.39 79.5825 1878.73 78.2712C1875.08 77.0449 1874.26 75.8352 1871.41 74.5845C1869.08 73.5844 1865.94 72.745 1860.96 72.5354C1854.5 72.2626 1849.54 73.4659 1846.36 74.6272C1843.75 75.6301 1842.11 78.0797 1842.4 80.7244C1842.68 83.5905 1843.19 85.9692 1843.67 87.8204C1844.56 91.098 1845.61 94.9189 1848.53 98.9014C1851.13 102.504 1850.21 101.491 1853.65 105.903C1856.41 109.384 1857.69 112.718 1858.57 116.438C1859.23 119.275 1858.5 121.368 1859.57 124.609C1860.45 127.223 1860.84 127.722 1861.7 128.659C1866.62 133.883 1870.11 135.894 1870.11 135.894C1871.86 128.242 1871.93 123.049 1870.19 120.426C1868.93 118.463 1867.9 118.047 1866.14 116.445C1866.14 116.445 1865.21 115.611 1863.52 113.601C1860.46 109.866 1859.68 99.3524 1862.59 97.5806C1863.34 97.1226 1864.28 97.3778 1866.23 97.8792C1867.62 98.224 1869.66 98.9714 1873.23 101.628C1876.18 103.789 1878.87 105.824 1881.08 109.328C1882.14 110.978 1882.64 112.208 1882.84 112.742C1884.34 115.989 1889.24 119.8 1904.22 122.369C1898.85 107.539 1894.27 103.708 1891.04 103.108C1890.39 102.969 1888.71 102.772 1886.47 101.975C1882.71 100.682 1880.18 98.7045 1878.76 97.5684C1876.73 95.9782 1875.52 94.4911 1874.61 93.5631C1870.49 89.4639 1866.53 84.5377 1871.75 84.1237C1876.98 83.7521 1884.06 83.1935 1889.96 86.8506C1895.86 90.4653 1904.26 86.8556 1906.31 84.8108Z" fill="#FEFEFE"/>
<path d="M2465.75 75.1031C2458.77 70.8716 2454.35 70.9053 2451.55 71.8165C2449.54 72.4839 2448.16 73.642 2444.67 74.2749C2444.07 74.3894 2441.23 74.8899 2437.35 74.3587C2433.52 73.9069 2432.45 72.8931 2429.39 72.255C2426.89 71.7545 2423.64 71.5772 2418.72 72.3919C2412.36 73.446 2407.77 75.6374 2404.92 77.4239C2402.59 78.9375 2401.53 81.6667 2402.39 84.1932C2403.3 86.9359 2404.32 89.1564 2405.21 90.8651C2406.8 93.8861 2408.67 97.4046 2412.4 100.699C2415.74 103.686 2414.62 102.885 2418.94 106.493C2422.41 109.329 2424.4 112.326 2426.09 115.779C2427.35 118.418 2427.1 120.611 2428.86 123.561C2430.3 125.933 2430.79 126.341 2431.84 127.081C2437.8 131.177 2441.65 132.429 2441.65 132.429C2441.67 124.594 2440.59 119.506 2438.32 117.298C2436.65 115.638 2435.55 115.442 2433.48 114.236C2433.48 114.236 2432.39 113.612 2430.29 111.995C2426.48 108.971 2423.39 98.8583 2425.85 96.5308C2426.48 95.93 2427.46 95.9854 2429.46 96.0782C2430.9 96.1305 2433.06 96.4432 2437.14 98.3076C2440.5 99.8144 2443.58 101.252 2446.51 104.225C2447.91 105.621 2448.66 106.72 2448.98 107.2C2451.16 110.067 2456.79 112.787 2472 112.231C2463.47 98.8402 2458.15 96.034 2454.86 96.1088C2454.21 96.1043 2452.51 96.2569 2450.15 95.9367C2446.2 95.4415 2443.28 94.029 2441.64 93.209C2439.31 92.0711 2437.8 90.8658 2436.71 90.1439C2431.78 86.9814 2426.81 82.9796 2431.83 81.5058C2436.86 80.0716 2443.65 78.0778 2450.23 80.4426C2456.78 82.7678 2464.19 77.5218 2465.75 75.1031Z" fill="#FEFEFE"/>
<path d="M2071.26 78.3587C2064.29 74.1669 2059.88 74.2005 2057.05 75.0721C2055.04 75.7395 2053.66 76.8976 2050.18 77.5305C2049.58 77.645 2046.73 78.1455 2042.88 77.654C2039.03 77.1625 2038 76.1308 2034.89 75.5106C2032.4 75.0101 2029.14 74.8328 2024.23 75.6475C2017.87 76.7017 2013.28 78.893 2010.43 80.6796C2008.1 82.1931 2007.1 84.944 2007.9 87.4488C2008.81 90.1915 2009.83 92.412 2010.78 94.1424C2012.35 97.1238 2014.18 100.66 2017.91 103.954C2021.25 106.942 2020.12 106.14 2024.49 109.731C2027.92 112.585 2029.9 115.581 2031.59 119.035C2032.86 121.673 2032.61 123.867 2034.37 126.816C2035.81 129.188 2036.3 129.596 2037.35 130.336C2043.31 134.433 2047.16 135.685 2047.16 135.685C2047.22 127.831 2046.1 122.761 2043.87 120.535C2042.16 118.894 2041.06 118.698 2038.99 117.492C2038.99 117.492 2037.9 116.867 2035.84 115.233C2032.03 112.209 2028.92 102.154 2031.35 99.7864C2031.98 99.1856 2033.01 99.223 2034.97 99.3338C2036.41 99.3861 2038.57 99.6989 2042.69 101.545C2046.01 103.07 2049.09 104.508 2052.06 107.462C2053.41 108.876 2054.17 109.976 2054.53 110.438C2056.71 113.305 2062.3 116.043 2077.55 115.469C2068.98 102.096 2063.7 99.2716 2060.37 99.3644C2059.71 99.3599 2058.02 99.5125 2055.66 99.1923C2051.75 98.6791 2048.83 97.2666 2047.15 96.4646C2044.86 95.3087 2043.3 94.1214 2042.23 93.4391C2037.33 90.2191 2032.36 86.2173 2037.35 84.801C2042.37 83.3272 2049.16 81.3334 2055.73 83.6982C2062.31 86.0631 2069.7 80.7775 2071.26 78.3587Z" fill="#FEFEFE"/>
<path d="M2610.24 83.3575C2603.28 79.1656 2598.86 79.1993 2596.04 80.0709C2594.03 80.7383 2592.65 81.8964 2589.16 82.5293C2588.56 82.6438 2585.72 83.1443 2581.87 82.6528C2578.01 82.1613 2576.99 81.1296 2573.88 80.5094C2571.38 80.0089 2568.13 79.8315 2563.22 80.6463C2556.85 81.7004 2552.27 83.8918 2549.41 85.6783C2547.09 87.1918 2546.09 89.9428 2546.89 92.4476C2547.79 95.1902 2548.82 97.4107 2549.76 99.1412C2551.34 102.123 2553.16 105.659 2556.89 108.953C2560.23 111.94 2559.11 111.139 2563.48 114.73C2566.91 117.584 2568.89 120.58 2570.58 124.033C2571.84 126.672 2571.59 128.866 2573.35 131.815C2574.8 134.187 2575.29 134.595 2576.33 135.335C2582.29 139.432 2586.14 140.683 2586.14 140.683C2586.21 132.83 2585.09 127.76 2582.85 125.534C2581.14 123.893 2580.04 123.697 2577.98 122.491C2577.98 122.491 2576.89 121.866 2574.82 120.231C2571.02 117.207 2567.9 107.152 2570.34 104.785C2570.97 104.184 2571.99 104.222 2573.96 104.333C2575.39 104.385 2577.55 104.698 2581.67 106.544C2584.99 108.069 2588.07 109.507 2591.04 112.461C2592.4 113.875 2593.16 114.975 2593.52 115.436C2595.69 118.303 2601.29 121.042 2616.53 120.468C2607.97 107.095 2602.69 104.27 2599.36 104.363C2598.7 104.359 2597.01 104.511 2594.64 104.191C2590.73 103.678 2587.81 102.265 2586.14 101.463C2583.84 100.307 2582.29 99.1202 2581.22 98.4379C2576.31 95.2179 2571.35 91.2161 2576.34 89.7998C2581.35 88.326 2588.14 86.3321 2594.72 88.697C2601.3 91.0619 2608.69 85.7762 2610.24 83.3575Z" fill="#FEFEFE"/>
<path d="M2366.85 71.5965C2359.65 75.6039 2355.26 75.4405 2352.57 74.4341C2350.63 73.6817 2349.38 72.4723 2345.94 71.7133C2345.33 71.5612 2342.58 71.0052 2338.69 71.3572C2334.87 71.6989 2333.72 72.7043 2330.65 73.2386C2328.17 73.6435 2324.92 73.6718 2320.12 72.7267C2313.87 71.4219 2309.48 69.0589 2306.81 67.1368C2304.58 65.5819 2303.73 62.7346 2304.71 60.2461C2305.83 57.5169 2306.99 55.3144 2308 53.6086C2309.79 50.6424 2311.86 47.1589 2315.77 43.9728C2319.29 41.0689 2318.11 41.8289 2322.66 38.3803C2326.28 35.6502 2328.46 32.6831 2330.35 29.2921C2331.84 26.6592 2331.69 24.4189 2333.66 21.5188C2335.22 19.2182 2335.78 18.7821 2336.87 18.0684C2343.01 14.1403 2346.91 13.0311 2346.91 13.0311C2346.42 20.9102 2344.98 25.9882 2342.61 28.1679C2340.84 29.7785 2339.72 29.9295 2337.59 31.0651C2337.59 31.0651 2336.47 31.6561 2334.3 33.2062C2330.29 36.1572 2326.55 46.2028 2328.82 48.663C2329.4 49.2908 2330.37 49.2578 2332.35 49.2173C2333.81 49.1984 2335.93 48.9785 2340.12 47.2547C2343.58 45.8396 2346.7 44.5123 2349.81 41.6453C2351.29 40.2708 2352.11 39.1946 2352.48 38.6924C2354.82 35.8886 2360.58 33.3426 2375.62 34.437C2366.24 47.6063 2360.76 50.2949 2357.51 50.1032C2356.89 50.0484 2355.2 49.853 2352.86 50.0786C2348.88 50.4769 2345.93 51.8089 2344.25 52.5547C2341.84 53.6091 2340.26 54.7486 2339.13 55.4368C2334.03 58.503 2328.85 62.3367 2333.69 63.9671C2338.59 65.5872 2345.19 67.8426 2351.86 65.7139C2358.49 63.5597 2365.49 69.1137 2366.85 71.5965Z" fill="#FEFEFE"/>
<path d="M1961.93 62.8649C1954.7 66.8313 1950.34 66.6072 1947.59 65.5956C1945.7 64.8578 1944.41 63.6156 1940.98 62.8371C1940.41 62.7073 1937.62 62.1099 1933.74 62.4398C1929.91 62.7598 1928.8 63.7844 1925.68 64.2754C1923.2 64.6663 1919.95 64.6761 1915.16 63.7038C1908.91 62.3635 1904.53 59.9755 1901.88 58.0382C1899.66 56.4707 1898.86 53.6443 1899.89 51.1258C1900.95 48.4129 1902.16 46.1814 1903.18 44.5427C1904.99 41.5253 1907.09 38.1151 1910.98 34.9256C1914.52 32.0418 1913.33 32.795 1917.9 29.3724C1921.57 26.6271 1923.74 23.7082 1925.68 20.2923C1927.15 17.7036 1927.06 15.4882 1929 12.5737C1930.61 10.2463 1931.14 9.84903 1932.24 9.14158C1938.44 5.27414 1942.31 4.16143 1942.31 4.16143C1941.81 12.0632 1940.34 17.133 1937.92 19.2736C1936.14 20.874 1935.02 21.0187 1932.91 22.1679C1932.91 22.1679 1931.76 22.7268 1929.58 24.2645C1925.55 27.1927 1921.75 37.2169 1924 39.6899C1924.58 40.321 1925.59 40.3192 1927.57 40.2899C1928.99 40.2537 1931.14 40.0715 1935.38 38.3358C1938.78 36.9505 1941.91 35.641 1945.06 32.7559C1946.53 31.4256 1947.35 30.354 1947.73 29.854C1950.08 27.0635 1955.86 24.5503 1970.89 25.7302C1961.43 38.846 1956 41.4933 1952.69 41.2932C1952.06 41.2348 1950.37 41.0298 1948.03 41.2421C1944.09 41.6435 1941.09 42.933 1939.41 43.6692C1937.03 44.7357 1935.4 45.8404 1934.27 46.5221C1929.18 49.5236 1923.95 53.3635 1928.82 55.0471C1933.67 56.6693 1940.25 58.9622 1946.94 56.8715C1953.62 54.7807 1960.55 60.3487 1961.93 62.8649Z" fill="#FEFEFE"/>
<path d="M2549.95 66.3029C2542.75 70.3103 2538.39 70.111 2535.63 69.115C2533.73 68.388 2532.44 67.1532 2529 66.3941C2528.43 66.2676 2525.64 65.686 2521.75 66.0381C2517.93 66.3798 2516.82 67.4107 2513.71 67.9194C2511.23 68.3244 2507.98 68.3527 2503.19 67.4076C2496.93 66.1028 2492.54 63.7398 2489.87 61.8176C2487.64 60.2627 2486.82 57.441 2487.84 54.9166C2488.89 52.1977 2490.07 49.9594 2491.09 48.3149C2492.88 45.2874 2494.96 41.8652 2498.83 38.6536C2502.36 35.7498 2501.17 36.5097 2505.72 33.0612C2509.37 30.2952 2511.52 27.3639 2513.44 23.9371C2514.9 21.34 2514.79 19.1253 2516.72 16.1997C2518.31 13.8632 2518.84 13.4629 2519.93 12.7492C2526.11 8.84665 2529.97 7.71196 2529.97 7.71196C2529.52 15.6165 2528.08 20.6945 2525.67 22.8488C2523.9 24.4593 2522.78 24.6103 2520.68 25.7715C2520.68 25.7715 2519.53 26.337 2517.36 27.8871C2513.35 30.8381 2509.62 40.8837 2511.88 43.3439C2512.46 43.9717 2513.47 43.9642 2515.45 43.9236C2516.87 43.8792 2519.03 43.6848 2523.25 41.9252C2526.65 40.5205 2529.76 39.1932 2532.9 36.2903C2534.35 34.9517 2535.17 33.8755 2535.55 33.3732C2537.88 30.5694 2543.65 28.0234 2558.69 29.1178C2549.31 42.2872 2543.89 44.9654 2540.57 44.784C2539.95 44.7293 2538.26 44.5338 2535.92 44.7594C2531.98 45.1832 2528.99 46.4898 2527.31 47.2355C2524.94 48.3155 2523.32 49.4294 2522.19 50.1176C2517.12 53.1479 2511.92 57.0175 2516.79 58.6735C2521.65 60.268 2528.25 62.5235 2534.92 60.3948C2541.59 58.266 2548.55 63.7945 2549.95 66.3029Z" fill="#FEFEFE"/>
<path d="M2693.22 66.3029C2686.03 70.3103 2681.67 70.111 2678.91 69.115C2677.01 68.388 2675.72 67.1532 2672.28 66.3941C2671.71 66.2676 2668.92 65.686 2665.03 66.0381C2661.21 66.3798 2660.1 67.4107 2656.99 67.9194C2654.51 68.3244 2651.26 68.3527 2646.46 67.4076C2640.21 66.1028 2635.82 63.7398 2633.15 61.8176C2630.92 60.2627 2630.1 57.441 2631.12 54.9166C2632.17 52.1977 2633.35 49.9594 2634.37 48.3149C2636.16 45.2874 2638.24 41.8652 2642.11 38.6536C2645.63 35.7498 2644.45 36.5097 2649 33.0612C2652.65 30.2952 2654.8 27.3639 2656.72 23.9371C2658.18 21.34 2658.07 19.1253 2660 16.1997C2661.59 13.8632 2662.12 13.4629 2663.21 12.7492C2669.39 8.84665 2673.25 7.71196 2673.25 7.71196C2672.79 15.6165 2671.36 20.6945 2668.95 22.8488C2667.18 24.4593 2666.06 24.6103 2663.96 25.7715C2663.96 25.7715 2662.81 26.337 2660.64 27.8871C2656.63 30.8381 2652.89 40.8837 2655.16 43.3439C2655.74 43.9717 2656.75 43.9642 2658.73 43.9236C2660.15 43.8792 2662.3 43.6848 2666.53 41.9252C2669.93 40.5205 2673.04 39.1932 2676.18 36.2903C2677.63 34.9517 2678.45 33.8755 2678.83 33.3732C2681.16 30.5694 2686.93 28.0234 2701.97 29.1178C2692.59 42.2872 2687.17 44.9654 2683.85 44.784C2683.23 44.7293 2681.54 44.5338 2679.2 44.7594C2675.26 45.1832 2672.27 46.4898 2670.59 47.2355C2668.22 48.3155 2666.6 49.4294 2665.47 50.1176C2660.4 53.1479 2655.19 57.0175 2660.07 58.6735C2664.93 60.268 2671.53 62.5235 2678.2 60.3948C2684.87 58.266 2691.83 63.7945 2693.22 66.3029Z" fill="#FEFEFE"/>
<path d="M2169.69 73.9547C2162.49 77.9621 2158.1 77.7987 2155.41 76.7923C2153.47 76.0398 2152.21 74.8305 2148.78 74.0714C2148.14 73.9553 2145.41 73.3633 2141.53 73.7154C2137.68 74.0929 2136.56 75.0625 2133.49 75.5967C2131.01 76.0017 2127.73 76.0658 2122.96 75.0849C2116.71 73.7801 2112.31 71.4171 2109.64 69.4949C2107.42 67.9401 2106.56 65.0928 2107.55 62.6043C2108.66 59.8751 2109.82 57.6726 2110.83 55.9667C2112.63 53.0005 2114.7 49.517 2118.6 46.3309C2122.13 43.4271 2120.95 44.187 2125.5 40.7385C2129.12 38.0084 2131.3 35.0412 2133.19 31.6502C2134.67 29.0173 2134.53 26.7771 2136.49 23.877C2138.06 21.5764 2138.61 21.1402 2139.71 20.4265C2145.85 16.4984 2149.75 15.3893 2149.75 15.3893C2149.26 23.2683 2147.82 28.3463 2145.45 30.5261C2143.65 32.1725 2142.56 32.2876 2140.4 33.4592C2140.4 33.4592 2139.31 34.0143 2137.11 35.6002C2133.13 38.5154 2129.39 48.561 2131.66 51.0212C2132.24 51.649 2133.21 51.616 2135.19 51.5754C2136.65 51.5565 2138.77 51.3366 2142.96 49.6129C2146.42 48.1978 2149.54 46.8705 2152.65 44.0035C2154.13 42.629 2154.94 41.5528 2155.32 41.0505C2157.66 38.2467 2163.42 35.7007 2178.46 36.7951C2169.06 50.0004 2163.6 52.653 2160.35 52.4613C2159.72 52.4066 2158.03 52.2111 2155.67 52.4726C2151.72 52.835 2148.77 54.1671 2147.09 54.9128C2144.68 55.9673 2143.1 57.1067 2141.96 57.7949C2136.87 60.8611 2131.69 64.6948 2136.53 66.3253C2141.43 67.9453 2148.02 70.2008 2154.7 68.0721C2161.33 65.9179 2168.3 71.5077 2169.69 73.9547Z" fill="#FEFEFE"/>
<path d="M3094.05 75.0958C3087.08 70.9039 3082.66 70.9376 3079.9 71.8309C3077.87 72.4586 3076.49 73.6167 3073.01 74.2497C3072.4 74.3641 3069.56 74.8647 3065.67 74.3911C3061.82 73.8996 3060.79 72.8679 3057.68 72.2477C3055.23 71.7292 3051.93 71.5699 3047.06 72.3666C3040.65 73.4387 3036.11 75.6121 3033.28 77.4383C3030.93 78.9122 3029.89 81.6811 3030.73 84.1679C3031.64 86.9106 3032.66 89.1311 3033.56 90.8795C3035.16 93.9005 3037.01 97.3794 3040.7 100.691C3044.08 103.661 3042.91 102.877 3047.28 106.468C3050.75 109.304 3052.73 112.3 3054.42 115.754C3055.69 118.393 3055.44 120.586 3057.2 123.535C3058.6 125.926 3059.13 126.315 3060.18 127.055C3066.1 131.17 3069.95 132.422 3069.95 132.422C3070.01 124.568 3068.93 119.48 3066.66 117.273C3064.99 115.613 3063.85 115.435 3061.82 114.211C3061.82 114.211 3060.69 113.604 3058.63 111.97C3054.82 108.946 3051.75 98.8727 3054.18 96.5055C3054.81 95.9048 3055.8 95.9601 3057.8 96.0529C3059.19 96.1232 3061.39 96.418 3065.48 98.2823C3068.84 99.7891 3071.92 101.227 3074.85 104.199C3076.24 105.595 3076.96 106.713 3077.32 107.175C3079.5 110.042 3085.15 112.802 3100.34 112.206C3091.81 98.815 3086.49 96.0087 3083.16 96.1015C3082.54 96.079 3080.85 96.2316 3078.45 95.9294C3074.53 95.4162 3071.62 94.0037 3069.98 93.1837C3067.64 92.0458 3066.13 90.8405 3065.02 90.1762C3060.12 86.9562 3055.15 82.9544 3060.18 81.5202C3065.16 80.0643 3071.99 78.0525 3078.56 80.4174C3085.1 82.8002 3092.53 77.4966 3094.05 75.0958Z" fill="#FEFEFE"/>
<path d="M2746.43 92.5354C2740.54 86.9713 2736.21 86.1002 2733.27 86.4166C2731.16 86.6574 2729.56 87.5063 2726.01 87.4112C2725.4 87.3998 2722.51 87.3071 2718.84 85.9958C2715.2 84.7695 2714.37 83.5598 2711.52 82.3091C2709.19 81.309 2706.05 80.4696 2701.07 80.26C2694.62 79.9872 2689.66 81.1905 2686.47 82.3518C2683.87 83.3547 2682.23 85.8043 2682.51 88.449C2682.79 91.3151 2683.3 93.6938 2683.79 95.545C2684.68 98.8226 2685.73 102.644 2688.65 106.626C2691.25 110.228 2690.33 109.215 2693.76 113.627C2696.52 117.109 2697.8 120.443 2698.69 124.163C2699.34 127 2698.61 129.092 2699.68 132.334C2700.57 134.948 2700.96 135.446 2701.81 136.383C2706.74 141.607 2710.22 143.618 2710.22 143.618C2711.97 135.967 2712.04 130.773 2710.31 128.151C2709.04 126.187 2708.01 125.771 2706.26 124.17C2706.26 124.17 2705.33 123.336 2703.63 121.325C2700.58 117.591 2699.79 107.077 2702.7 105.305C2703.45 104.847 2704.4 105.102 2706.34 105.604C2707.73 105.949 2709.77 106.696 2713.35 109.353C2716.3 111.514 2718.99 113.549 2721.19 117.053C2722.25 118.703 2722.75 119.933 2722.96 120.467C2724.45 123.713 2729.35 127.525 2744.33 130.094C2738.96 115.264 2734.38 111.433 2731.15 110.832C2730.51 110.694 2728.82 110.496 2726.58 109.7C2722.83 108.406 2720.29 106.429 2718.87 105.293C2716.84 103.703 2715.63 102.216 2714.73 101.288C2710.61 97.1885 2706.64 92.2623 2711.87 91.8483C2717.1 91.4768 2724.17 90.9181 2730.08 94.5752C2735.97 98.1899 2744.37 94.5802 2746.43 92.5354Z" fill="#FEFEFE"/>
<path d="M3294.93 75.1031C3287.94 70.8716 3283.53 70.9053 3280.72 71.8165C3278.71 72.4839 3277.33 73.642 3273.85 74.2749C3273.24 74.3894 3270.4 74.8899 3266.53 74.3587C3262.7 73.9069 3261.63 72.8931 3258.56 72.255C3256.07 71.7545 3252.81 71.5772 3247.9 72.3919C3241.53 73.446 3236.95 75.6374 3234.1 77.4239C3231.77 78.9375 3230.71 81.6667 3231.57 84.1932C3232.48 86.9359 3233.5 89.1564 3234.39 90.8651C3235.98 93.8861 3237.85 97.4046 3241.58 100.699C3244.92 103.686 3243.79 102.885 3248.12 106.493C3251.59 109.329 3253.57 112.326 3255.26 115.779C3256.53 118.418 3256.28 120.611 3258.04 123.561C3259.48 125.933 3259.97 126.341 3261.01 127.081C3266.98 131.177 3270.83 132.429 3270.83 132.429C3270.85 124.594 3269.77 119.506 3267.49 117.298C3265.82 115.638 3264.73 115.442 3262.66 114.236C3262.66 114.236 3261.57 113.612 3259.47 111.995C3255.66 108.971 3252.57 98.8583 3255.02 96.5308C3255.65 95.93 3256.63 95.9854 3258.64 96.0782C3260.08 96.1305 3262.23 96.4432 3266.31 98.3076C3269.68 99.8144 3272.76 101.252 3275.68 104.225C3277.08 105.621 3277.84 106.72 3278.16 107.2C3280.34 110.067 3285.97 112.787 3301.17 112.231C3292.65 98.8402 3287.33 96.034 3284.04 96.1088C3283.38 96.1043 3281.69 96.2569 3279.33 95.9367C3275.37 95.4415 3272.46 94.029 3270.82 93.209C3268.48 92.0711 3266.97 90.8658 3265.88 90.1439C3260.95 86.9814 3255.99 82.9796 3261 81.5058C3266.04 80.0716 3272.83 78.0778 3279.4 80.4426C3285.96 82.7678 3293.37 77.5218 3294.93 75.1031Z" fill="#FEFEFE"/>
<path d="M2900.43 78.3587C2893.47 74.1669 2889.05 74.2005 2886.23 75.0721C2884.22 75.7395 2882.84 76.8976 2879.35 77.5305C2878.75 77.645 2875.91 78.1455 2872.06 77.654C2868.21 77.1625 2867.18 76.1308 2864.07 75.5106C2861.57 75.0101 2858.32 74.8328 2853.41 75.6475C2847.04 76.7017 2842.46 78.893 2839.6 80.6796C2837.28 82.1931 2836.28 84.944 2837.08 87.4488C2837.99 90.1915 2839.01 92.412 2839.95 94.1424C2841.53 97.1238 2843.35 100.66 2847.09 103.954C2850.42 106.942 2849.3 106.14 2853.67 109.731C2857.1 112.585 2859.08 115.581 2860.77 119.035C2862.03 121.673 2861.78 123.867 2863.54 126.816C2864.99 129.188 2865.48 129.596 2866.52 130.336C2872.49 134.433 2876.34 135.685 2876.34 135.685C2876.4 127.831 2875.28 122.761 2873.04 120.535C2871.33 118.894 2870.24 118.698 2868.17 117.492C2868.17 117.492 2867.08 116.867 2865.02 115.233C2861.21 112.209 2858.09 102.154 2860.53 99.7864C2861.16 99.1856 2862.18 99.223 2864.15 99.3338C2865.58 99.3861 2867.74 99.6989 2871.87 101.545C2875.19 103.07 2878.26 104.508 2881.23 107.462C2882.59 108.876 2883.35 109.976 2883.71 110.438C2885.89 113.305 2891.48 116.043 2906.73 115.469C2898.16 102.096 2892.88 99.2716 2889.55 99.3644C2888.89 99.3599 2887.2 99.5125 2884.83 99.1923C2880.92 98.6791 2878.01 97.2666 2876.33 96.4646C2874.03 95.3087 2872.48 94.1214 2871.41 93.4391C2866.5 90.2191 2861.54 86.2173 2866.53 84.801C2871.54 83.3272 2878.33 81.3334 2884.91 83.6982C2891.49 86.0631 2898.88 80.7775 2900.43 78.3587Z" fill="#FEFEFE"/>
<path d="M3439.42 83.3575C3432.46 79.1656 3428.04 79.1993 3425.22 80.0709C3423.21 80.7383 3421.83 81.8964 3418.34 82.5293C3417.74 82.6438 3414.9 83.1443 3411.04 82.6528C3407.19 82.1613 3406.16 81.1296 3403.06 80.5094C3400.56 80.0089 3397.31 79.8315 3392.39 80.6463C3386.03 81.7004 3381.44 83.8918 3378.59 85.6783C3376.26 87.1918 3375.26 89.9428 3376.06 92.4476C3376.97 95.1902 3377.99 97.4107 3378.94 99.1412C3380.51 102.123 3382.34 105.659 3386.07 108.953C3389.41 111.94 3388.29 111.139 3392.66 114.73C3396.08 117.584 3398.07 120.58 3399.76 124.033C3401.02 126.672 3400.77 128.866 3402.53 131.815C3403.97 134.187 3404.46 134.595 3405.51 135.335C3411.47 139.432 3415.32 140.683 3415.32 140.683C3415.39 132.83 3414.26 127.76 3412.03 125.534C3410.32 123.893 3409.22 123.697 3407.16 122.491C3407.16 122.491 3406.06 121.866 3404 120.231C3400.19 117.207 3397.08 107.152 3399.52 104.785C3400.15 104.184 3401.17 104.222 3403.14 104.333C3404.57 104.385 3406.73 104.698 3410.85 106.544C3414.17 108.069 3417.25 109.507 3420.22 112.461C3421.58 113.875 3422.33 114.975 3422.7 115.436C3424.87 118.303 3430.46 121.042 3445.71 120.468C3437.14 107.095 3431.86 104.27 3428.53 104.363C3427.88 104.359 3426.18 104.511 3423.82 104.191C3419.91 103.678 3416.99 102.265 3415.31 101.463C3413.02 100.307 3411.47 99.1202 3410.4 98.4379C3405.49 95.2179 3400.53 91.2161 3405.52 89.7998C3410.53 88.326 3417.32 86.3321 3423.9 88.697C3430.47 91.0619 3437.86 85.7762 3439.42 83.3575Z" fill="#FEFEFE"/>
<path d="M3196.02 71.5965C3188.83 75.6039 3184.44 75.4405 3181.75 74.4341C3179.81 73.6817 3178.55 72.4723 3175.12 71.7133C3174.51 71.5612 3171.75 71.0052 3167.87 71.3572C3164.05 71.6989 3162.9 72.7043 3159.83 73.2386C3157.35 73.6435 3154.1 73.6718 3149.3 72.7267C3143.05 71.4219 3138.65 69.0589 3135.98 67.1368C3133.76 65.5819 3132.9 62.7346 3133.89 60.2461C3135 57.5169 3136.16 55.3144 3137.17 53.6086C3138.96 50.6424 3141.04 47.1589 3144.94 43.9728C3148.47 41.0689 3147.29 41.8289 3151.84 38.3803C3155.45 35.6502 3157.64 32.6831 3159.53 29.2921C3161.01 26.6592 3160.87 24.4189 3162.83 21.5188C3164.4 19.2182 3164.95 18.7821 3166.05 18.0684C3172.19 14.1403 3176.08 13.0311 3176.08 13.0311C3175.59 20.9102 3174.16 25.9882 3171.79 28.1679C3170.02 29.7785 3168.9 29.9295 3166.76 31.0651C3166.76 31.0651 3165.65 31.6561 3163.48 33.2062C3159.47 36.1572 3155.73 46.2028 3157.99 48.663C3158.58 49.2908 3159.55 49.2578 3161.53 49.2173C3162.99 49.1984 3165.1 48.9785 3169.3 47.2547C3172.76 45.8396 3175.88 44.5123 3178.99 41.6453C3180.47 40.2708 3181.28 39.1946 3181.66 38.6924C3184 35.8886 3189.76 33.3426 3204.8 34.437C3195.42 47.6063 3189.94 50.2949 3186.69 50.1032C3186.06 50.0484 3184.37 49.853 3182.03 50.0786C3178.06 50.4769 3175.1 51.8089 3173.43 52.5547C3171.02 53.6091 3169.44 54.7486 3168.3 55.4368C3163.21 58.503 3158.03 62.3367 3162.87 63.9671C3167.77 65.5872 3174.36 67.8426 3181.04 65.7139C3187.67 63.5597 3194.67 69.1137 3196.02 71.5965Z" fill="#FEFEFE"/>
<path d="M2791.1 62.8649C2783.88 66.8313 2779.52 66.6072 2776.77 65.5956C2774.88 64.8578 2773.59 63.6156 2770.16 62.8371C2769.59 62.7073 2766.8 62.1099 2762.91 62.4398C2759.09 62.7598 2757.97 63.7844 2754.86 64.2754C2752.38 64.6663 2749.13 64.6761 2744.34 63.7038C2738.09 62.3635 2733.71 59.9755 2731.05 58.0382C2728.84 56.4707 2728.04 53.6443 2729.06 51.1258C2730.13 48.4129 2731.33 46.1814 2732.36 44.5427C2734.16 41.5253 2736.26 38.1151 2740.15 34.9256C2743.7 32.0418 2742.51 32.795 2747.08 29.3724C2750.74 26.6271 2752.92 23.7082 2754.86 20.2923C2756.33 17.7036 2756.23 15.4882 2758.18 12.5737C2759.79 10.2463 2760.32 9.84903 2761.42 9.14158C2767.62 5.27414 2771.48 4.16143 2771.48 4.16143C2770.98 12.0632 2769.51 17.133 2767.1 19.2736C2765.31 20.874 2764.2 21.0187 2762.09 22.1679C2762.09 22.1679 2760.94 22.7268 2758.75 24.2645C2754.73 27.1927 2750.93 37.2169 2753.18 39.6899C2753.76 40.321 2754.76 40.3192 2756.74 40.2899C2758.17 40.2537 2760.32 40.0715 2764.55 38.3358C2767.96 36.9505 2771.09 35.641 2774.24 32.7559C2775.7 31.4256 2776.52 30.354 2776.9 29.854C2779.26 27.0635 2785.04 24.5503 2800.07 25.7302C2790.61 38.846 2785.18 41.4933 2781.86 41.2932C2781.24 41.2348 2779.55 41.0298 2777.21 41.2421C2773.26 41.6435 2770.27 42.933 2768.59 43.6692C2766.21 44.7357 2764.58 45.8404 2763.44 46.5221C2758.36 49.5236 2753.13 53.3635 2757.99 55.0471C2762.85 56.6693 2769.43 58.9622 2776.11 56.8715C2782.8 54.7807 2789.73 60.3487 2791.1 62.8649Z" fill="#FEFEFE"/>
<path d="M3379.12 66.3029C3371.92 70.3103 3367.56 70.111 3364.81 69.115C3362.91 68.388 3361.61 67.1532 3358.18 66.3941C3357.6 66.2676 3354.81 65.686 3350.93 66.0381C3347.11 66.3798 3346 67.4107 3342.89 67.9194C3340.41 68.3244 3337.16 68.3527 3332.36 67.4076C3326.11 66.1028 3321.71 63.7398 3319.04 61.8176C3316.82 60.2627 3316 57.441 3317.01 54.9166C3318.06 52.1977 3319.25 49.9594 3320.27 48.3149C3322.05 45.2874 3324.13 41.8652 3328 38.6536C3331.53 35.7498 3330.35 36.5097 3334.9 33.0612C3338.54 30.2952 3340.7 27.3639 3342.62 23.9371C3344.07 21.34 3343.96 19.1253 3345.89 16.1997C3347.49 13.8632 3348.01 13.4629 3349.11 12.7492C3355.28 8.84665 3359.14 7.71196 3359.14 7.71196C3358.69 15.6165 3357.25 20.6945 3354.85 22.8488C3353.08 24.4593 3351.96 24.6103 3349.86 25.7715C3349.86 25.7715 3348.71 26.337 3346.54 27.8871C3342.53 30.8381 3338.79 40.8837 3341.06 43.3439C3341.64 43.9717 3342.65 43.9642 3344.63 43.9236C3346.05 43.8792 3348.2 43.6848 3352.42 41.9252C3355.82 40.5205 3358.94 39.1932 3362.08 36.2903C3363.53 34.9517 3364.34 33.8755 3364.72 33.3732C3367.06 30.5694 3372.82 28.0234 3387.86 29.1178C3378.48 42.2872 3373.07 44.9654 3369.75 44.784C3369.12 44.7293 3367.43 44.5338 3365.09 44.7594C3361.16 45.1832 3358.17 46.4898 3356.49 47.2355C3354.12 48.3155 3352.5 49.4294 3351.36 50.1176C3346.29 53.1479 3341.09 57.0175 3345.97 58.6735C3350.83 60.268 3357.42 62.5235 3364.1 60.3948C3370.77 58.266 3377.73 63.7945 3379.12 66.3029Z" fill="#FEFEFE"/>
<path d="M3522.4 66.3029C3515.2 70.3103 3510.84 70.111 3508.09 69.115C3506.19 68.388 3504.89 67.1532 3501.46 66.3941C3500.88 66.2676 3498.09 65.686 3494.21 66.0381C3490.39 66.3798 3489.28 67.4107 3486.17 67.9194C3483.69 68.3244 3480.44 68.3527 3475.64 67.4076C3469.39 66.1028 3464.99 63.7398 3462.32 61.8176C3460.1 60.2627 3459.28 57.441 3460.29 54.9166C3461.34 52.1977 3462.53 49.9594 3463.55 48.3149C3465.33 45.2874 3467.41 41.8652 3471.28 38.6536C3474.81 35.7498 3473.63 36.5097 3478.18 33.0612C3481.82 30.2952 3483.98 27.3639 3485.9 23.9371C3487.35 21.34 3487.24 19.1253 3489.17 16.1997C3490.77 13.8632 3491.29 13.4629 3492.39 12.7492C3498.56 8.84665 3502.42 7.71196 3502.42 7.71196C3501.97 15.6165 3500.53 20.6945 3498.13 22.8488C3496.36 24.4593 3495.24 24.6103 3493.14 25.7715C3493.14 25.7715 3491.99 26.337 3489.82 27.8871C3485.81 30.8381 3482.07 40.8837 3484.33 43.3439C3484.92 43.9717 3485.93 43.9642 3487.91 43.9236C3489.33 43.8792 3491.48 43.6848 3495.7 41.9252C3499.1 40.5205 3502.22 39.1932 3505.36 36.2903C3506.81 34.9517 3507.62 33.8755 3508 33.3732C3510.34 30.5694 3516.1 28.0234 3531.14 29.1178C3521.76 42.2872 3516.35 44.9654 3513.03 44.784C3512.4 44.7293 3510.71 44.5338 3508.37 44.7594C3504.44 45.1832 3501.45 46.4898 3499.77 47.2355C3497.4 48.3155 3495.78 49.4294 3494.64 50.1176C3489.57 53.1479 3484.37 57.0175 3489.25 58.6735C3494.11 60.268 3500.7 62.5235 3507.38 60.3948C3514.05 58.266 3521.01 63.7945 3522.4 66.3029Z" fill="#FEFEFE"/>
<path d="M2998.86 73.9547C2991.66 77.9621 2987.28 77.7987 2984.59 76.7923C2982.65 76.0398 2981.39 74.8305 2977.95 74.0714C2977.32 73.9553 2974.59 73.3633 2970.71 73.7154C2966.86 74.0929 2965.74 75.0625 2962.66 75.5967C2960.19 76.0017 2956.91 76.0658 2952.14 75.0849C2945.89 73.7801 2941.49 71.4171 2938.82 69.4949C2936.6 67.9401 2935.74 65.0928 2936.73 62.6043C2937.84 59.8751 2939 57.6726 2940.01 55.9667C2941.8 53.0005 2943.87 49.517 2947.78 46.3309C2951.31 43.4271 2950.12 44.187 2954.67 40.7385C2958.29 38.0084 2960.48 35.0412 2962.37 31.6502C2963.85 29.0173 2963.7 26.7771 2965.67 23.877C2967.24 21.5764 2967.79 21.1402 2968.89 20.4265C2975.02 16.4984 2978.92 15.3893 2978.92 15.3893C2978.43 23.2683 2976.99 28.3463 2974.63 30.5261C2972.83 32.1725 2971.74 32.2876 2969.57 33.4592C2969.57 33.4592 2968.49 34.0143 2966.29 35.6002C2962.31 38.5154 2958.57 48.561 2960.83 51.0212C2961.42 51.649 2962.39 51.616 2964.37 51.5754C2965.83 51.5565 2967.94 51.3366 2972.14 49.6129C2975.6 48.1978 2978.72 46.8705 2981.83 44.0035C2983.31 42.629 2984.12 41.5528 2984.5 41.0505C2986.84 38.2467 2992.6 35.7007 3007.64 36.7951C2998.23 50.0004 2992.78 52.653 2989.53 52.4613C2988.9 52.4066 2987.21 52.2111 2984.84 52.4726C2980.9 52.835 2977.94 54.1671 2976.27 54.9128C2973.86 55.9673 2972.27 57.1067 2971.14 57.7949C2966.04 60.8611 2960.87 64.6948 2965.71 66.3253C2970.61 67.9453 2977.2 70.2008 2983.87 68.0721C2990.51 65.9179 2997.48 71.5077 2998.86 73.9547Z" fill="#FEFEFE"/>
</svg>
